<?xml version="1.0" encoding="UTF-8"?>
<svg version="1.1" xmlns="http://www.w3.org/2000/svg" width="1024" height="1024">
<path d="M0 0 C3.33761045 2.15090451 4.73470933 3.20412799 6 7 C6.44184066 13.47153685 5.22749126 18.42683675 3.07421875 24.5 C2.76199875 25.4065332 2.44977875 26.31306641 2.12809753 27.24707031 C-1.71213156 38.26402376 -5.93697765 49.13641282 -10.1875 60 C-11.03388176 62.17259667 -11.88023563 64.34520421 -12.7265625 66.51782227 C-18.52615473 81.37450349 -24.45843615 96.16440257 -30.67333984 110.85253906 C-32.01201136 114.02849658 -33.33018329 117.21234539 -34.64453125 120.3984375 C-50.30525239 158.18431259 -67.52750516 197.14933219 -95 228 C-95.84691406 228.95519531 -96.69382812 229.91039062 -97.56640625 230.89453125 C-100.3300567 233.97519159 -103.15258114 236.99679531 -106 240 C-106.71760498 240.76062744 -106.71760498 240.76062744 -107.44970703 241.53662109 C-114.72682104 249.19814968 -122.39511722 255.87015777 -131 262 C-131.85585693 262.61439941 -131.85585693 262.61439941 -132.72900391 263.24121094 C-164.16582454 285.59512003 -199.3958303 294.77110361 -236.875 301.4375 C-237.88401367 301.61716309 -238.89302734 301.79682617 -239.93261719 301.98193359 C-242.82634151 302.49345052 -245.72131863 302.99687331 -248.6171875 303.49609375 C-249.49003387 303.64884262 -250.36288025 303.80159149 -251.26217651 303.95896912 C-255.21728231 304.62847342 -258.9709675 305.19790476 -263 305 C-263.33 305.99 -263.66 306.98 -264 308 C-264 307.34 -264 306.68 -264 306 C-303.77835993 312.77631238 -303.77835993 312.77631238 -343.5 319.875 C-344.59384003 320.07393356 -344.59384003 320.07393356 -345.70977783 320.27688599 C-367.36425023 324.1456726 -367.36425023 324.1456726 -388.4375 330.3125 C-389.21802734 330.56966797 -389.99855469 330.82683594 -390.80273438 331.09179688 C-395.54129112 332.75165227 -399.58345237 334.89549471 -403.80102539 337.62963867 C-404.77850235 338.26060959 -405.75597931 338.89158051 -406.76307678 339.54167175 C-407.87035378 340.26354424 -407.87035378 340.26354424 -409 341 C-336.05114946 341.5525053 -263.10009055 342.10081619 -190.14903641 342.22460938 C-188.6682256 342.22712671 -187.1874148 342.22964947 -185.706604 342.23217773 C-184.97960965 342.23341078 -184.2526153 342.23464382 -183.50359082 342.23591423 C-178.4041959 342.24531609 -173.30486544 342.26264844 -168.20550537 342.28344727 C-161.36748202 342.31120762 -154.5295903 342.32315136 -147.69151115 342.32407379 C-145.20440531 342.32673289 -142.71729874 342.3344157 -140.23022652 342.3476181 C-136.84465002 342.36465089 -133.45957643 342.36289554 -130.07397461 342.35644531 C-129.1052561 342.36566261 -128.13653759 342.37487991 -127.13846397 342.38437653 C-116.82166421 342.32167975 -106.78296906 340.14075943 -99 333 C-90.06866196 322.2442081 -86.33441853 306.15922678 -81.8515625 293.13354492 C-78.8022186 284.30967617 -75.51289957 275.57577718 -72.19995117 266.84790039 C-71.78463135 265.7418042 -71.36931152 264.63570801 -70.94140625 263.49609375 C-70.37981812 262.01387329 -70.37981812 262.01387329 -69.80688477 260.50170898 C-68.84651896 257.96224144 -68.84651896 257.96224144 -69 255 C-68.34 255 -67.68 255 -67 255 C-66.79153442 254.12214844 -66.79153442 254.12214844 -66.57885742 253.2265625 C-64.42699807 244.75585201 -61.38532058 236.68954743 -58.27850342 228.53549194 C-56.94122178 225.02549729 -55.6152353 221.51126486 -54.28826904 217.99736023 C-53.58902206 216.14615758 -52.8891855 214.29517752 -52.18878174 212.44441223 C-48.37854903 202.37325504 -44.62510031 192.28116734 -40.875 182.1875 C-40.20285384 180.37978122 -39.53065344 178.5720826 -38.85839844 176.7644043 C-35.42207568 167.523035 -31.98897818 158.28046738 -28.55903625 149.03672791 C-27.19366987 145.35739756 -25.82687607 141.67861347 -24.45629883 138.0012207 C-22.07757559 131.61622187 -19.71444769 125.22737173 -17.40625 118.81640625 C-17.00656006 117.7183667 -16.60687012 116.62032715 -16.19506836 115.48901367 C-15.47516644 113.50963256 -14.7640193 111.52702854 -14.06469727 109.5402832 C-9.96463716 98.33938686 -3.55791317 89.31303965 7.125 83.625 C11.6647298 81.56793494 15.2330768 80.58425336 20.1875 81.75 C22.92339215 82.96595206 24.17776084 83.69231171 26 86 C27.31435481 92.97559873 25.27391765 99.49042863 22.921875 105.9921875 C22.59977554 106.92204971 22.27767609 107.85191193 21.94581604 108.80995178 C21.25434288 110.80022872 20.55586968 112.78808528 19.85098267 114.77365112 C18.72685504 117.94019685 17.62125232 121.11269366 16.52026367 124.28735352 C15.03465998 128.56841738 13.54304523 132.84730064 12.04638672 137.12451172 C9.39901847 144.70599178 6.84044516 152.31551725 4.3125 159.9375 C4.08601776 160.61867889 3.85953552 161.29985779 3.62619019 162.00167847 C1.74321444 167.66528651 -0.12970017 173.33219482 -2 179 C-2.36287109 180.09957031 -2.72574219 181.19914063 -3.09960938 182.33203125 C-12.85302817 211.89758409 -22.55561475 241.47910415 -32.0625 271.125 C-32.58372437 272.74894684 -32.58372437 272.74894684 -33.11547852 274.40570068 C-36.6289311 285.35830078 -40.11131113 296.31912491 -43.5078125 307.30859375 C-44.05448844 309.06953524 -44.60127883 310.83044119 -45.14819336 312.59130859 C-46.13497457 315.76910979 -47.10833233 318.95053217 -48.07250977 322.13525391 C-53.75326165 340.64251943 -61.45105867 354.55817523 -79 364 C-79.87398437 364.47179687 -80.74796875 364.94359375 -81.6484375 365.4296875 C-93.76391148 371.43413062 -106.35360899 372.44737536 -119.68261719 372.35644531 C-121.21022754 372.35721008 -122.73783769 372.35928564 -124.26544476 372.36254597 C-128.40672252 372.36758385 -132.5477506 372.3540242 -136.68898845 372.33697438 C-141.13274583 372.32189531 -145.57650059 372.32408954 -150.02027893 372.32395935 C-158.62222429 372.32084875 -167.22405409 372.30130229 -175.82595795 372.27535468 C-182.76656693 372.25466154 -189.70716531 372.23988668 -196.64779663 372.22915649 C-221.60503966 372.19009531 -246.56206583 372.12027449 -271.51917309 372.02986389 C-277.90171277 372.00691949 -284.2842561 371.98633516 -290.66680908 371.96746826 C-310.12062193 371.90969225 -329.57416585 371.83315634 -349.02774727 371.72137439 C-353.90215074 371.69388714 -358.77655537 371.67299892 -363.65100098 371.65466309 C-370.13652568 371.6299405 -376.62182731 371.58914828 -383.10719109 371.53706551 C-385.44436608 371.52046517 -387.7815816 371.50869932 -390.11880684 371.50231743 C-393.28301245 371.49273309 -396.44655429 371.46489221 -399.6105957 371.43237305 C-400.51054638 371.43380939 -401.41049706 371.43524574 -402.33771896 371.43672562 C-413.69419519 371.27001716 -422.92824096 368.0597992 -431.625 360.8125 C-443.68565451 346.53014598 -444.31650258 330.790837 -442.82128906 312.85644531 C-439.96022872 287.97157823 -424.48217462 262.36739067 -408 244 C-407.01 243.67 -406.02 243.34 -405 243 C-405.15855469 243.52464844 -405.31710937 244.04929687 -405.48046875 244.58984375 C-405.99343422 246.29311583 -406.50197295 247.99772309 -407.0078125 249.703125 C-407.73418479 252.11674002 -408.47977537 254.51975459 -409.2421875 256.921875 C-412.46705653 267.24385357 -415.83351832 278.2027307 -414.625 289.125 C-415.15035659 294.5536848 -417.96624463 298.2167494 -420.89453125 302.6875 C-426.95318524 312.21948253 -430.40444315 321.67559175 -430 333 C-429.41605469 332.1646875 -429.41605469 332.1646875 -428.8203125 331.3125 C-411.05689392 307.08221475 -379.75264119 299.75813153 -351.85546875 294.37109375 C-351.20947912 294.24602888 -350.56348949 294.12096401 -349.89792442 293.9921093 C-336.94409918 291.49173191 -323.95378997 289.2061466 -310.95703125 286.94140625 C-308.89895578 286.58218682 -306.84088083 286.22296439 -304.7828064 285.86373901 C-296.33133815 284.38988852 -287.87961406 282.91766479 -279.42504883 281.46166992 C-225.42633852 272.51890586 -225.42633852 272.51890586 -175 252 C-174.36610352 251.65211426 -173.73220703 251.30422852 -173.07910156 250.94580078 C-159.40670047 243.32871858 -147.33846445 233.7663401 -136 223 C-135.25218262 222.29302979 -135.25218262 222.29302979 -134.48925781 221.57177734 C-126.67519148 214.13535129 -119.77795581 206.32093923 -113.29541016 197.70556641 C-112.04549758 196.05990314 -110.76959519 194.43927337 -109.48046875 192.82421875 C-104.61600984 186.67278489 -100.11783332 180.3649031 -95.8125 173.8125 C-95.31814453 173.06895264 -94.82378906 172.32540527 -94.31445312 171.55932617 C-93.14416491 169.74685283 -92.06285195 167.87749297 -91 166 C-91.33 165.34 -91.66 164.68 -92 164 C-91.01 163.67 -90.02 163.34 -89 163 C-87.64738245 161.19131864 -87.64738245 161.19131864 -86.46875 158.8984375 C-85.99373047 158.02815918 -85.51871094 157.15788086 -85.02929688 156.26123047 C-84.52462891 155.30877441 -84.01996094 154.35631836 -83.5 153.375 C-82.96955078 152.38516113 -82.43910156 151.39532227 -81.89257812 150.37548828 C-67.97233434 124.15296008 -56.73258983 96.73415714 -45.4375 69.3125 C-45.08789215 68.4656665 -44.7382843 67.61883301 -44.37808228 66.74633789 C-43.3723767 64.30752336 -42.37105163 61.86695724 -41.37109375 59.42578125 C-40.92650314 58.34916985 -40.92650314 58.34916985 -40.47293091 57.25080872 C-38.96886692 53.56417239 -37.54988135 49.85403991 -36.22680664 46.09838867 C-35.96718643 45.36230881 -35.70756622 44.62622894 -35.44007874 43.86784363 C-34.77150142 41.92331985 -34.77150142 41.92331985 -36 40 C-36.95390625 40.38929688 -37.9078125 40.77859375 -38.890625 41.1796875 C-92.37474595 62.26322706 -151.55273974 71.23165108 -207.64773178 82.57556534 C-210.28488794 83.10932069 -212.92180246 83.64425246 -215.55862427 84.17965698 C-216.42968119 84.35652102 -217.30073811 84.53338505 -218.19819069 84.7156086 C-219.95701332 85.07277983 -221.71582146 85.43002239 -223.4746151 85.78733635 C-227.78608624 86.66249275 -232.09831476 87.53351778 -236.41247559 88.39532471 C-276.72202604 95.01199499 -276.72202604 95.01199499 -310.3125 116.4375 C-313.52181247 121.31090041 -315.95258398 126.54022395 -318 132 C-324.78678261 126.18275777 -326.70980468 118.79940131 -327.8046875 110.1796875 C-328.25327604 102.87666599 -326.53659726 97.66135173 -321.8671875 92.03125 C-305.4715007 74.194938 -282.99291741 68.38521932 -259.94482422 63.64770508 C-259.0529541 63.45974365 -258.16108398 63.27178223 -257.2421875 63.078125 C-256.4466748 62.91731445 -255.65116211 62.75650391 -254.83154297 62.59082031 C-254.22713379 62.39584961 -253.62272461 62.20087891 -253 62 C-252.67 61.34 -252.34 60.68 -252 60 C-250.49179687 60.08894531 -250.49179687 60.08894531 -248.953125 60.1796875 C-242.78813616 60.17697165 -236.8103301 58.78600587 -230.79882812 57.54638672 C-228.74281419 57.12352208 -226.68427215 56.71526085 -224.625 56.30859375 C-218.10688047 55.19902034 -218.10688047 55.19902034 -211.95410156 52.95874023 C-209.34043857 51.67639958 -206.95317216 51.48499004 -204.0625 51.15234375 C-194.25687402 49.85177871 -184.65687579 47.67696407 -175 45.5625 C-173.15895273 45.16295703 -171.31780728 44.76386615 -169.4765625 44.36523438 C-159.58964747 42.2245237 -159.58964747 42.2245237 -149.7109375 40.04638672 C-148.46570313 39.77197754 -147.22046875 39.49756836 -145.9375 39.21484375 C-144.87402344 38.97757568 -143.81054688 38.74030762 -142.71484375 38.49584961 C-140 38 -140 38 -136 38 C-135.67 37.34 -135.34 36.68 -135 36 C-132.65625 35.5078125 -132.65625 35.5078125 -129.5 35.125 C-123.12796929 34.24999246 -116.97301496 32.8919426 -110.73828125 31.32080078 C-107.34810489 30.48198608 -104.51978794 30 -101 30 C-100.67 29.34 -100.34 28.68 -100 28 C-98.16348985 27.75858083 -96.32522748 27.52724771 -94.48242188 27.33984375 C-89.64221617 26.67721921 -84.9595475 25.2718778 -80.25 24 C-78.21354816 23.45830892 -76.17709008 22.9166413 -74.140625 22.375 C-73.24891602 22.13523437 -72.35720703 21.89546875 -71.43847656 21.6484375 C-69.29672486 21.07890481 -67.1500808 20.53688072 -65 20 C-62.1849244 19.21145197 -59.37112341 18.41867679 -56.55859375 17.62109375 C-54 17 -54 17 -51 17 C-50.67 16.34 -50.34 15.68 -50 15 C-48.30493164 14.49462891 -48.30493164 14.49462891 -46.09765625 14.1015625 C-40.68832207 13.00619109 -35.62118876 11.24614811 -30.4375 9.375 C-29.52419922 9.05015625 -28.61089844 8.7253125 -27.66992188 8.390625 C-25.44488059 7.59846371 -23.22167825 6.8015341 -21 6 C-21 5.34 -21 4.68 -21 4 C-19.824375 3.896875 -18.64875 3.79375 -17.4375 3.6875 C-14.2970405 3.31086641 -12.37003139 2.72846181 -9.375 1.4375 C-5.81386242 -0.07928082 -3.8114007 -0.57999576 0 0 Z " fill="#81CFFE" transform="translate(725,308)"/>
<path d="M0 0 C0.66 0.33 1.32 0.66 2 1 C1.77183594 2.07636719 1.54367187 3.15273438 1.30859375 4.26171875 C-1.15466351 16.49500553 -2.98107885 28.83961308 4 40 C9.68542381 46.7058845 15.4887042 48.88791835 24 50 C26.96426712 49.99932884 29.77678878 49.59178559 32.6953125 49.09375 C33.56398956 48.95771362 34.43266663 48.82167725 35.32766724 48.68151855 C50.70307625 46.17922244 65.98160631 43.03396203 81.26190186 40.01544189 C85.6191165 39.15596749 89.97759539 38.30295371 94.3359375 37.44921875 C100.009612 36.33689916 105.68309324 35.22361163 111.35553169 34.10500336 C112.80908512 33.81838659 114.26274058 33.53228665 115.71650505 33.24674225 C119.23171687 32.55461596 122.74330477 31.84893387 126.25054932 31.11743164 C126.93053041 30.97702705 127.61051151 30.83662247 128.3110981 30.6919632 C130.15754869 30.30972084 132.00290584 29.9222071 133.84817505 29.53430176 C136.64837498 29.05960796 139.16985984 28.89089457 142 29 C142.33 28.34 142.66 27.68 143 27 C144.99688581 26.75066509 146.99628952 26.51685521 149.00048828 26.33544922 C154.79263824 25.6876864 160.51430492 24.5411168 166.2409668 23.47094727 C168.45546882 23.05915868 170.67194253 22.65936764 172.88867188 22.25976562 C174.29961461 21.99812519 175.71042711 21.73578122 177.12109375 21.47265625 C178.3939624 21.23812744 179.66683105 21.00359863 180.97827148 20.76196289 C184.0898347 20.25199951 184.0898347 20.25199951 186 18 C187.77361705 18.0347768 189.54721376 18.07369988 191.3203125 18.12890625 C196.0751673 17.90017417 200.68401387 16.6974537 205.31640625 15.65625 C210.27771357 14.77236916 214.35444036 14.04923221 218.8125 16.625 C222.29594485 20.40702584 223.05720031 23.39839122 222.875 28.5 C221.58537357 33.65850574 219.55622547 36.80148525 215.33908081 40.04928589 C211.71514347 42.16641516 208.32163443 43.18157792 204.26220703 44.02392578 C203.15158496 44.26931941 203.15158496 44.26931941 202.01852608 44.51967049 C199.68217367 45.02962911 197.34231255 45.51821187 195 46 C194.27029747 46.1512307 193.54059494 46.3024614 192.78878021 46.45827484 C187.46871633 47.55289095 182.13778707 48.58832374 176.8046875 49.6171875 C175.07115723 49.95427825 173.33768931 50.29168974 171.60427856 50.62939453 C167.93103968 51.344434 164.25743062 52.05752544 160.58349609 52.76898193 C154.80369836 53.88831967 149.02479644 55.01223125 143.24609375 56.13720703 C142.27527485 56.32619505 141.30445595 56.51518307 140.30421829 56.70989799 C138.33441366 57.09336812 136.36461208 57.47685394 134.39481354 57.86035538 C131.4231594 58.43877066 128.45142527 59.01677341 125.47967529 59.59469604 C107.07195083 63.17537621 88.67174586 66.79375734 70.27414703 70.42606354 C68.01969316 70.8711124 65.765195 71.31593619 63.51068115 71.76068115 C59.31954671 72.587475 55.1285001 73.41471298 50.9375 74.2421875 C49.73803741 74.47897217 48.53857483 74.71575684 47.30276489 74.9597168 C45.58861893 75.29845825 45.58861893 75.29845825 43.83984375 75.64404297 C42.17745918 75.97211189 42.17745918 75.97211189 40.48149109 76.30680847 C37.97408865 76.80605149 35.46832497 77.31109083 32.9634552 77.82270813 C32.28838173 77.95986551 31.61330826 78.0970229 30.91777802 78.23833656 C29.02541972 78.62325825 27.13358116 79.01073249 25.24177551 79.39836121 C12.92206224 81.68476796 2.21390464 80.37366873 -8.25 73.3125 C-15.96376629 67.09473687 -20.04359546 58.51840234 -21.28125 48.7890625 C-22.07605578 30.44229565 -10.61748476 13.92457018 0 0 Z " fill="#86D4FE" transform="translate(390,414)"/>
<path d="M0 0 C0.66 0.33 1.32 0.66 2 1 C1.81824219 1.54785156 1.63648438 2.09570312 1.44921875 2.66015625 C-0.22599982 7.94353788 -1.57059252 13.25972153 -2.6875 18.6875 C-2.93886719 19.90824219 -3.19023437 21.12898438 -3.44921875 22.38671875 C-4.68142556 30.47034497 -4.07056486 38.07260388 0.32421875 45.125 C4.10181474 49.88417605 7.72828995 51.62055909 13.86936951 52.33277893 C25.23655661 52.46611951 36.04461416 50.25633118 47.16015625 48.08984375 C49.31574006 47.67950524 51.4715426 47.2703143 53.62754822 46.86219788 C59.29536506 45.78619406 64.96014608 44.69497847 70.62438965 43.6003418 C76.25764646 42.51429229 81.8935428 41.44214188 87.52929688 40.36914062 C94.12347991 39.11286692 100.71717756 37.85424795 107.30874634 36.58432007 C117.34161411 34.65155719 127.37642345 32.73517824 137.42529297 30.88720703 C139.1768942 30.56330175 140.92847664 30.23929479 142.68003845 29.91517639 C145.88933772 29.32144131 149.10019945 28.73744292 152.31227112 28.15892029 C153.72054426 27.89875215 155.12874713 27.63820321 156.53686523 27.37719727 C157.74592026 27.15765884 158.95497528 26.93812042 160.20066833 26.71192932 C163.11645504 26.22421674 163.11645504 26.22421674 165 24 C166.84047515 24.01714063 168.68102776 24.03947156 170.52099609 24.0859375 C176.60303161 23.8750968 182.61856216 22.10372926 188.53710938 20.77734375 C195.28136703 19.3371423 202.09388742 18.04360872 209 19 C212.41311667 21.52570633 213.66637768 22.99913304 215 27 C215.39614654 32.24894167 214.86557317 35.55342094 212 40 C204.69001304 47.30998696 193.66157074 48.23584947 183.94140625 50.08203125 C182.42610339 50.37515235 180.9109187 50.66888495 179.39584351 50.96318054 C175.3055121 51.75588231 171.21356412 52.53992421 167.12125778 53.32235718 C162.81432345 54.14737194 158.50894486 54.98042972 154.20336914 55.8125 C145.244784 57.54225895 136.28434277 59.26224208 127.32336426 60.97955322 C122.14985916 61.97104023 116.97673257 62.96449014 111.80371094 63.95849609 C86.87648115 68.74778763 86.87648115 68.74778763 76.3610754 70.75777149 C74.93645655 71.03009138 73.51186344 71.30254594 72.08729649 71.57513714 C68.60893853 72.24064236 65.13025645 72.90434085 61.65083313 73.56425476 C55.04145653 74.82094548 48.43970622 76.10521333 41.84966564 77.46009064 C38.62097776 78.12309359 35.39022915 78.77575397 32.15939522 79.4282074 C30.62942725 79.74036844 29.10049437 80.05765878 27.57279778 80.38075256 C13.09737819 83.44055805 -2.11479827 86.03897265 -15.27734375 77.52734375 C-21.74542544 72.43237437 -25.42306984 66.48775999 -26.4765625 58.29296875 C-27.75660317 35.82756674 -13.20161306 16.79799157 0 0 Z " fill="#76C9FE" transform="translate(356,480)"/>
<path d="M0 0 C3.33761045 2.15090451 4.73470933 3.20412799 6 7 C6.44184066 13.47153685 5.22749126 18.42683675 3.07421875 24.5 C2.60588875 25.8597998 2.60588875 25.8597998 2.12809753 27.24707031 C-1.71213156 38.26402376 -5.93697765 49.13641282 -10.1875 60 C-11.03388176 62.17259667 -11.88023563 64.34520421 -12.7265625 66.51782227 C-18.51605936 81.34864241 -24.43562751 96.11458421 -30.63818359 110.77783203 C-32.07619286 114.18027847 -33.50162185 117.58782888 -34.92578125 120.99609375 C-38.85968649 130.38921534 -42.8056115 139.78202962 -47 149.0625 C-47.515625 150.20847656 -48.03125 151.35445312 -48.5625 152.53515625 C-50 155 -50 155 -53 156 C-52.54705135 154.24859857 -52.08741252 152.49892656 -51.625 150.75 C-51.36976563 149.77546875 -51.11453125 148.8009375 -50.8515625 147.796875 C-50.10401491 145.34162697 -49.22876183 143.24382595 -48 141 C-47.34 141 -46.68 141 -46 141 C-45.87882813 140.40832031 -45.75765625 139.81664062 -45.6328125 139.20703125 C-44.73255357 134.96196415 -43.79543379 130.97560339 -42 127 C-41.34 127 -40.68 127 -40 127 C-39.8453125 126.0409375 -39.8453125 126.0409375 -39.6875 125.0625 C-38.76096927 120.93522674 -37.38339371 116.99357051 -36 113 C-35.34 113 -34.68 113 -34 113 C-33.88519287 112.30253662 -33.77038574 111.60507324 -33.65209961 110.88647461 C-32.92748869 107.67903359 -31.82719534 104.8533552 -30.56640625 101.81640625 C-30.08236328 100.64142578 -29.59832031 99.46644531 -29.09960938 98.25585938 C-28.58753193 97.02461795 -28.07515967 95.79349911 -27.5625 94.5625 C-26.56205674 92.14785782 -25.5632998 89.73251611 -24.56640625 87.31640625 C-24.12240479 86.24849854 -23.67840332 85.18059082 -23.22094727 84.08032227 C-22.03251767 81.08203867 -21.00682668 78.06322512 -20 75 C-18.73549687 71.62675293 -17.3965979 68.28376024 -16.0625 64.9375 C-15.71509766 64.05255859 -15.36769531 63.16761719 -15.00976562 62.25585938 C-13.28122392 57.9166012 -11.43070566 53.99636608 -9 50 C-8.22629461 47.62632197 -8.22629461 47.62632197 -7.6875 45.125 C-5.65171684 37.17575149 -2.49532823 29.61558488 0.83349609 22.12426758 C2.64345654 18.03965643 3.47790493 14.43780807 4 10 C4.33 9.34 4.66 8.68 5 8 C4.34 8 3.68 8 3 8 C2.67 7.01 2.34 6.02 2 5 C-7.45352298 2.73937494 -15.44705011 7.119146 -24.04296875 10.8046875 C-27.55335205 12.22367996 -31.09932611 13.28116972 -34.73828125 14.3125 C-38.66088666 15.50486365 -42.33456107 17.16728054 -46 19 C-46.99128906 19.12761719 -47.98257813 19.25523437 -49.00390625 19.38671875 C-53.7909182 20.02325662 -58.31895437 21.43725803 -62.9375 22.8125 C-70.90174825 25.14095301 -78.88153039 27.28417454 -86.9453125 29.23828125 C-90.01360849 29.96159362 -90.01360849 29.96159362 -93 31 C-95.73170912 31.50320957 -98.46988245 31.95305236 -101.2109375 32.40234375 C-103.9769174 32.90569425 -103.9769174 32.90569425 -106.35253906 33.98339844 C-109.00917136 35.00352172 -111.33635972 35.46844695 -114.1484375 35.86328125 C-121.8726882 37.07527484 -129.447184 38.84591459 -137.06262207 40.59838867 C-152.86418542 44.23129538 -168.69761987 47.66032944 -184.58837891 50.87963867 C-185.26436127 51.01665695 -185.94034363 51.15367523 -186.6368103 51.29484558 C-188.44407733 51.66038723 -190.25180596 52.02364462 -192.05957031 52.38671875 C-194.39259485 52.87331437 -196.69462887 53.39946233 -199 54 C-212.64781952 57.44317538 -212.64781952 57.44317538 -219 57 C-219 56.34 -219 55.68 -219 55 C-217.88625 54.690625 -216.7725 54.38125 -215.625 54.0625 C-212.2054845 53.17673517 -212.2054845 53.17673517 -210 52 C-208.06667147 51.70906403 -206.12790367 51.45408539 -204.1875 51.21484375 C-194.34767841 49.85810304 -184.69788138 47.68594263 -175 45.5625 C-173.15895273 45.16295703 -171.31780728 44.76386615 -169.4765625 44.36523438 C-159.58964747 42.2245237 -159.58964747 42.2245237 -149.7109375 40.04638672 C-148.46570313 39.77197754 -147.22046875 39.49756836 -145.9375 39.21484375 C-144.87402344 38.97757568 -143.81054688 38.74030762 -142.71484375 38.49584961 C-140 38 -140 38 -136 38 C-135.505 37.01 -135.505 37.01 -135 36 C-132.65625 35.5078125 -132.65625 35.5078125 -129.5 35.125 C-123.12796929 34.24999246 -116.97301496 32.8919426 -110.73828125 31.32080078 C-107.34810489 30.48198608 -104.51978794 30 -101 30 C-100.67 29.34 -100.34 28.68 -100 28 C-98.16348985 27.75858083 -96.32522748 27.52724771 -94.48242188 27.33984375 C-89.64221617 26.67721921 -84.9595475 25.2718778 -80.25 24 C-78.21354816 23.45830892 -76.17709008 22.9166413 -74.140625 22.375 C-73.24891602 22.13523437 -72.35720703 21.89546875 -71.43847656 21.6484375 C-69.29672486 21.07890481 -67.1500808 20.53688072 -65 20 C-62.1849244 19.21145197 -59.37112341 18.41867679 -56.55859375 17.62109375 C-54 17 -54 17 -51 17 C-50.67 16.34 -50.34 15.68 -50 15 C-48.30493164 14.49462891 -48.30493164 14.49462891 -46.09765625 14.1015625 C-40.68832207 13.00619109 -35.62118876 11.24614811 -30.4375 9.375 C-29.52419922 9.05015625 -28.61089844 8.7253125 -27.66992188 8.390625 C-25.44488059 7.59846371 -23.22167825 6.8015341 -21 6 C-21 5.34 -21 4.68 -21 4 C-19.824375 3.896875 -18.64875 3.79375 -17.4375 3.6875 C-14.2970405 3.31086641 -12.37003139 2.72846181 -9.375 1.4375 C-5.81386242 -0.07928082 -3.8114007 -0.57999576 0 0 Z " fill="#BBEAF7" transform="translate(725,308)"/>
<path d="M0 0 C0 3 0 3 -1.44140625 4.76171875 C-14.22513002 16.36830405 -30.16762629 23.12115774 -47.52838135 23.12698364 C-48.82937428 23.12980693 -50.13036722 23.13263021 -51.47078419 23.13553905 C-52.90532762 23.13359406 -54.33987092 23.13154214 -55.77441406 23.12939453 C-57.30084365 23.13072278 -58.82727292 23.13247314 -60.35370159 23.13461018 C-64.52842124 23.13911517 -68.70311687 23.13726056 -72.87783694 23.13418651 C-76.43169727 23.13233532 -79.98555212 23.134082 -83.5394122 23.13586229 C-95.10871687 23.14161749 -106.67800176 23.13535977 -118.24730349 23.12700987 C-122.23690494 23.12433941 -126.22650658 23.12250035 -130.2161085 23.12067896 C-182.15530274 23.09662515 -234.09512358 23.03583869 -286.03348505 22.72280884 C-290.90524211 22.69405141 -295.77699768 22.67255514 -300.64880371 22.65411377 C-307.13489318 22.62931664 -313.62074823 22.58875685 -320.10668755 22.53693962 C-322.4440765 22.52042255 -324.78150551 22.50871067 -327.11894417 22.50235176 C-330.28310433 22.49276387 -333.44659993 22.46491058 -336.6105957 22.43237305 C-337.96051794 22.43452662 -337.96051794 22.43452662 -339.33771133 22.43672371 C-349.30202098 22.29045946 -357.90449257 19.86866298 -366 14 C-365.01 13.67 -364.02 13.34 -363 13 C-363 13.66 -363 14.32 -363 15 C-362.236875 14.938125 -361.47375 14.87625 -360.6875 14.8125 C-358 15 -358 15 -356.71875 16.46875 C-354.22249772 18.69268385 -352.10013402 18.51074548 -348.8125 18.6875 C-347.72582031 18.75324219 -346.63914062 18.81898438 -345.51953125 18.88671875 C-344.27236328 18.94279297 -344.27236328 18.94279297 -343 19 C-343 19.33 -343 19.66 -343 20 C-338.29012419 20.02512449 -333.58028921 20.04305588 -328.87036133 20.05493164 C-327.27530231 20.05989369 -325.68024768 20.06666548 -324.08520508 20.07543945 C-321.7638235 20.0878689 -319.44250307 20.09330936 -317.12109375 20.09765625 C-316.43293076 20.10281754 -315.74476776 20.10797882 -315.03575134 20.11329651 C-310.43616966 20.1137931 -305.89493602 19.85384326 -301.30874634 19.50099182 C-292.58532229 18.88419458 -283.88574391 18.85895511 -275.14428711 18.87060547 C-273.40798913 18.86924678 -271.67169144 18.86746424 -269.93539429 18.86529541 C-265.26866583 18.86077968 -260.60195976 18.86248543 -255.93523097 18.8656745 C-251.03336325 18.86822499 -246.13149732 18.86585345 -241.22962952 18.86428833 C-233.01156269 18.86247599 -224.7935049 18.86484994 -216.57543945 18.86962891 C-207.08163228 18.87508606 -197.58784653 18.8732946 -188.09403986 18.8678025 C-179.92046104 18.86326412 -171.74688867 18.86262389 -163.573309 18.86524117 C-158.70072901 18.86679784 -153.8281591 18.86701407 -148.95557976 18.86370468 C-144.3828099 18.86081488 -139.81006774 18.86282208 -135.23730087 18.86859894 C-133.56113671 18.86991987 -131.88497022 18.86954374 -130.20880699 18.86733627 C-127.91923819 18.86459899 -125.62975789 18.86803722 -123.3401947 18.87301636 C-122.05994887 18.87339338 -120.77970304 18.87377041 -119.46066189 18.87415886 C-116.21553606 18.99216239 -113.18426273 19.38342665 -110 20 C-110 20.66 -110 21.32 -110 22 C-101.34093563 21.93844843 -92.68219123 21.86110242 -84.02344894 21.76428509 C-80.00165611 21.71979707 -75.97995957 21.68049533 -71.95800781 21.65356445 C-68.06743646 21.62731381 -64.17724005 21.58676313 -60.28690338 21.53681374 C-58.81201131 21.52029055 -57.3370546 21.50868665 -55.86208344 21.50238609 C-46.82488663 21.45992416 -38.70142855 20.51203877 -30 18 C-27.60321106 17.47257295 -25.45239105 17 -23 17 C-23 16.34 -23 15.68 -23 15 C-22.49210937 14.75765625 -21.98421875 14.5153125 -21.4609375 14.265625 C-13.89870515 10.58363921 -5.99682679 5.99682679 0 0 Z " fill="#5AACF1" transform="translate(662,657)"/>
<path d="M0 0 C2.61281512 3.38809066 1.76657281 7.64562641 1.31390381 11.70376587 C0.45711372 15.41799148 -0.75708132 18.95512172 -2.04547119 22.53970337 C-2.39112122 23.54030792 -2.73677124 24.54091248 -3.09289551 25.57183838 C-4.19293243 28.74603535 -5.31392683 31.91233448 -6.43609619 35.07876587 C-7.17450619 37.19545476 -7.91149787 39.312639 -8.64703369 41.43032837 C-10.04320839 45.44545124 -11.44640491 49.45799079 -12.85601807 53.46841431 C-14.8638416 59.19263457 -16.80595526 64.93622171 -18.68609619 70.70376587 C-19.67609619 70.20876587 -19.67609619 70.20876587 -20.68609619 69.70376587 C-20.02609619 65.74376587 -19.36609619 61.78376587 -18.68609619 57.70376587 C-18.02609619 57.70376587 -17.36609619 57.70376587 -16.68609619 57.70376587 C-16.58039307 56.88392212 -16.47468994 56.06407837 -16.36578369 55.21939087 C-15.57082675 51.10754461 -14.25653431 47.37390958 -12.81109619 43.45376587 C-10.8798181 38.10587402 -9.03532626 32.77531347 -7.47515869 27.30532837 C-6.03566688 22.55928113 -4.3317706 17.89333736 -2.67437744 13.21939087 C-1.56411458 9.2698392 -0.6847523 5.58128567 -2.68609619 1.82876587 C-5.96987168 -0.01835784 -9.08749302 0.02016025 -12.68609619 0.70376587 C-21.07463001 4.43554707 -29.86935874 11.86069286 -33.31890869 20.44595337 C-33.82597604 21.82002708 -34.32322659 23.19775931 -34.81109619 24.57876587 C-35.06246338 25.26067993 -35.31383057 25.94259399 -35.57281494 26.64517212 C-37.1388775 30.94979434 -38.46742412 35.28607962 -39.68609619 39.70376587 C-40.75815176 43.22623418 -42.03954209 46.54503555 -43.56109619 49.89126587 C-45.52708923 54.22672066 -47.1691396 58.63931006 -48.75640869 63.12564087 C-49.67654289 65.67727352 -50.67605263 68.18661007 -51.68609619 70.70376587 C-52.27631723 72.30541115 -52.85926795 73.90974863 -53.43609619 75.51626587 C-57.60604859 87.01851376 -61.87028913 98.4526768 -66.68609619 109.70376587 C-67.01609619 109.70376587 -67.34609619 109.70376587 -67.68609619 109.70376587 C-67.24948709 103.56542131 -66.11774336 98.30291803 -63.86968994 92.58657837 C-63.58150391 91.82763779 -63.29331787 91.0686972 -62.99639893 90.28675842 C-62.04863222 87.7968743 -61.0863798 85.31287759 -60.12359619 82.82876587 C-59.107161 80.17601163 -58.09400345 77.52202103 -57.08113098 74.86790466 C-56.37470569 73.01732818 -55.66703443 71.16722689 -54.95817566 69.31758118 C-52.35461876 62.50974087 -49.83235875 55.67495482 -47.34234619 48.82485962 C-46.629736 46.87345228 -45.91692882 44.92211687 -45.20391846 42.97085571 C-44.170412 40.14220738 -43.14024994 37.31261224 -42.12185669 34.47848511 C-36.89846583 19.95772229 -31.91869566 6.9054283 -17.49859619 -0.67123413 C-11.39178709 -3.42761489 -5.79504964 -4.4551083 0 0 Z " fill="#B2EBFB" transform="translate(749.6860961914063,392.2962341308594)"/>
<path d="M0 0 C-7.38234619 4.13411387 -17.3165544 6.08995382 -25.71484375 5.95703125 C-28.16177192 5.80349878 -28.16177192 5.80349878 -30.4375 7.5625 C-33.78162619 9.43847323 -35.32416407 8.82518766 -39 8 C-40.99965715 7.96296931 -43.00056665 7.95239444 -45 8 C-45 8.66 -45 9.32 -45 10 C-49.5156411 10.84145005 -54.03225614 11.67739628 -58.54980469 12.50854492 C-60.0823018 12.791262 -61.6145361 13.0754079 -63.14648438 13.36108398 C-70.70667152 14.76998309 -78.203933 16.11847267 -85.87548828 16.7644043 C-89.34018176 17.14861818 -92.64339861 18.0213721 -96 18.9375 C-100.41796279 20.10414818 -104.80138007 21.18924406 -109.3125 21.9375 C-113.98473115 22.82185866 -117.98415872 24.64928562 -122.2578125 26.6953125 C-124.93476209 27.96896088 -127.6290503 29.13369404 -130.375 30.25 C-131.14585937 30.56453125 -131.91671875 30.8790625 -132.7109375 31.203125 C-135.12228997 32.04257193 -137.48821732 32.55622214 -140 33 C-140 33.66 -140 34.32 -140 35 C-142.08203125 36.47265625 -142.08203125 36.47265625 -144.8125 38.0625 C-145.70582031 38.58972656 -146.59914063 39.11695313 -147.51953125 39.66015625 C-150 41 -150 41 -153 42 C-153.6955599 43.31849105 -154.35880897 44.65423023 -155 46 C-156.62109375 47.78125 -156.62109375 47.78125 -158.4375 49.5 C-160.45485771 51.43816391 -162.08881905 53.12829419 -163.6875 55.4375 C-164.120625 55.953125 -164.55375 56.46875 -165 57 C-166.32 57 -167.64 57 -169 57 C-168 54 -168 54 -166.1015625 53.0390625 C-165.40804688 52.69617188 -164.71453125 52.35328125 -164 52 C-162.59735217 50.33310561 -162.59735217 50.33310561 -161.375 48.375 C-141.63390402 21.16960903 -99.3165534 16.5259487 -69 11 C-67.83857483 10.78802979 -66.67714966 10.57605957 -65.48052979 10.35766602 C-56.53290797 8.72676331 -47.58239925 7.11242113 -38.63006973 5.50757599 C-36.50582819 5.12604678 -34.38194858 4.74255822 -32.25814819 4.35858154 C-28.22549254 3.63002875 -24.19100464 2.91215054 -20.15625 2.1953125 C-18.93448563 1.97373474 -17.71272125 1.75215698 -16.45393372 1.52386475 C-10.89506281 0.54487624 -5.64745209 -0.28937528 0 0 Z " fill="#67BBF9" transform="translate(460,588)"/>
<path d="M0 0 C1 2 1 2 0.51855469 3.74560547 C0.09944824 4.79578857 0.09944824 4.79578857 -0.328125 5.8671875 C-0.63226318 6.66092773 -0.93640137 7.45466797 -1.24975586 8.27246094 C-1.57983643 9.13129883 -1.90991699 9.99013672 -2.25 10.875 C-4.91008371 18.10284437 -6.84548701 25.12175622 -7.9375 32.75 C-8.05319336 33.55808105 -8.16888672 34.36616211 -8.28808594 35.19873047 C-8.76677275 38.92365748 -9.0157305 42.45035592 -8.84765625 46.203125 C-9.02275802 50.56719976 -10.02157439 52.45939198 -12.5 56 C-13.1496875 56.94875 -13.799375 57.8975 -14.46875 58.875 C-14.9740625 59.57625 -15.479375 60.2775 -16 61 C-16.66 60.67 -17.32 60.34 -18 60 C-16.35167464 54.29425837 -16.35167464 54.29425837 -14.46875 52.71875 C-12.23851844 50.10890455 -12.47928062 47.68146849 -12.3125 44.3125 C-12.24675781 43.13300781 -12.18101562 41.95351563 -12.11328125 40.73828125 C-12.07589844 39.83464844 -12.03851563 38.93101562 -12 38 C-11.67 38 -11.34 38 -11 38 C-10.34 32.39 -9.68 26.78 -9 21 C-8.34 21 -7.68 21 -7 21 C-7 18.36 -7 15.72 -7 13 C-10.89554456 15.22602546 -12.15984573 18.02303757 -13.9921875 21.92578125 C-15.41668811 24.85760227 -17.04344145 27.39125527 -19 30 C-19.66 30 -20.32 30 -21 30 C-21.33 31.98 -21.66 33.96 -22 36 C-22.66 36 -23.32 36 -24 36 C-24.0825 36.94875 -24.165 37.8975 -24.25 38.875 C-24.82340349 42.92112889 -26.30131249 46.35169454 -27.8828125 50.09765625 C-29.64208844 54.66808291 -30.87995058 59.37272724 -32.16796875 64.09375 C-33 67 -33 67 -34 69 C-35.03779421 73.83336324 -35.12023998 78.46266055 -35.0625 83.375 C-35.05798828 84.11105469 -35.05347656 84.84710937 -35.04882812 85.60546875 C-35.03715142 87.40368158 -35.01922011 89.20185197 -35 91 C-34.34 91.33 -33.68 91.66 -33 92 C-33.185625 92.969375 -33.37125 93.93875 -33.5625 94.9375 C-33.706875 95.948125 -33.85125 96.95875 -34 98 C-33.67 98.33 -33.34 98.66 -33 99 C-32.95936168 100.66617115 -32.957279 102.33388095 -33 104 C-32.34 104 -31.68 104 -31 104 C-30.67 105.32 -30.34 106.64 -30 108 C-30.99 108.495 -30.99 108.495 -32 109 C-32.65134925 107.43979133 -33.29582964 105.87671421 -33.9375 104.3125 C-34.29714844 103.44238281 -34.65679687 102.57226562 -35.02734375 101.67578125 C-42.62695783 80.7692124 -34.86277393 56.1446744 -26 37 C-10.47837446 5.23918723 -10.47837446 5.23918723 0 0 Z " fill="#62B3F7" transform="translate(319,551)"/>
<path d="M0 0 C0.99 0.33 1.98 0.66 3 1 C2.08290428 8.48961503 0.12687333 14.92787265 -2.99609375 21.75 C-4.19202523 24.43037562 -5.21171087 27.1521069 -6.22265625 29.90625 C-8.58867107 36.27903363 -11.20635174 42.5288488 -14.00390625 48.72265625 C-15.04622556 51.10568432 -15.99573113 53.51310706 -16.9375 55.9375 C-18.29146802 59.37817167 -19.80105833 62.65391854 -21.5 65.9375 C-23.27603032 69.3975103 -24.71916242 72.82792128 -26 76.5 C-31.0984456 91.0492228 -31.0984456 91.0492228 -35 93 C-34.53831564 86.24433298 -31.90175042 80.89508543 -29.0625 74.8125 C-23.20498601 61.9609805 -17.7796097 48.94834191 -12.4375 35.875 C-12.04096222 34.90825348 -11.64442444 33.94150696 -11.23587036 32.94546509 C-10.08984991 30.14999154 -8.94834683 27.35272144 -7.80859375 24.5546875 C-7.29829117 23.30909813 -7.29829117 23.30909813 -6.77767944 22.03834534 C-3.46942203 14.15734461 -3.46942203 14.15734461 -1 6 C-1.495 5.01 -1.495 5.01 -2 4 C-2.52319824 4.19634033 -3.04639648 4.39268066 -3.58544922 4.5949707 C-28.70790479 14 -28.70790479 14 -35 14 C-35 13.34 -35 12.68 -35 12 C-26.85817822 8.41919878 -18.45846403 5.98880479 -9.91992188 3.57324219 C-8.13056123 3.03898242 -6.36799955 2.4171427 -4.609375 1.7890625 C-2 1 -2 1 0 2 C0 1.34 0 0.68 0 0 Z " fill="#BBEEFC" transform="translate(691,344)"/>
<path d="M0 0 C3.3 0 6.6 0 10 0 C7.09417208 1.45291396 4.60898617 2.52850354 1.5625 3.5 C-0.78638374 4.2516428 -3.05470633 5.02342914 -5.32299805 5.99487305 C-7.98755909 6.99532884 -10.33580374 7.46836889 -13.1484375 7.86328125 C-20.8726882 9.07527484 -28.447184 10.84591459 -36.06262207 12.59838867 C-51.86418542 16.23129538 -67.69761987 19.66032944 -83.58837891 22.87963867 C-84.26436127 23.01665695 -84.94034363 23.15367523 -85.6368103 23.29484558 C-87.44407733 23.66038723 -89.25180596 24.02364462 -91.05957031 24.38671875 C-93.39259485 24.87331437 -95.69462887 25.39946233 -98 26 C-111.64781952 29.44317538 -111.64781952 29.44317538 -118 29 C-118 28.34 -118 27.68 -118 27 C-116.329375 26.5359375 -116.329375 26.5359375 -114.625 26.0625 C-111.2054845 25.17673517 -111.2054845 25.17673517 -109 24 C-107.06667147 23.70906403 -105.12790367 23.45408539 -103.1875 23.21484375 C-93.34767841 21.85810304 -83.69788138 19.68594263 -74 17.5625 C-72.15895273 17.16295703 -70.31780728 16.76386615 -68.4765625 16.36523438 C-58.58964747 14.2245237 -58.58964747 14.2245237 -48.7109375 12.04638672 C-47.46570313 11.77197754 -46.22046875 11.49756836 -44.9375 11.21484375 C-43.34228516 10.85894165 -43.34228516 10.85894165 -41.71484375 10.49584961 C-39 10 -39 10 -35 10 C-34.67 9.34 -34.34 8.68 -34 8 C-31.65625 7.5078125 -31.65625 7.5078125 -28.5 7.125 C-22.12796929 6.24999246 -15.97301496 4.8919426 -9.73828125 3.32080078 C-6.34810489 2.48198608 -3.51978794 2 0 2 C0 1.34 0 0.68 0 0 Z " fill="#A8E4FA" transform="translate(624,336)"/>
<path d="M0 0 C0.99 1.98 0.99 1.98 2 4 C0.824375 3.87625 -0.35125 3.7525 -1.5625 3.625 C-7.58708521 3.61557185 -12.58173977 6.0273722 -18.0078125 8.34375 C-23.08702212 10.50235163 -28.30867094 12.1478325 -33.5625 13.82421875 C-37.8383031 15.28673776 -41.95414487 16.97707243 -46 19 C-46.99128906 19.12761719 -47.98257813 19.25523437 -49.00390625 19.38671875 C-53.7909182 20.02325662 -58.31895437 21.43725803 -62.9375 22.8125 C-70.90174825 25.14095301 -78.88153039 27.28417454 -86.9453125 29.23828125 C-90.01360849 29.96159362 -90.01360849 29.96159362 -93 31 C-94.72532263 31.22008052 -96.45534033 31.40503094 -98.1875 31.5625 C-99.53908203 31.68818359 -99.53908203 31.68818359 -100.91796875 31.81640625 C-101.60503906 31.87699219 -102.29210937 31.93757813 -103 32 C-99.43253961 30.12238927 -95.8762805 29.10750871 -92 28 C-91.35869141 27.67523682 -90.71738281 27.35047363 -90.05664062 27.01586914 C-87.91331524 25.95718242 -85.9065699 25.34045664 -83.59375 24.74609375 C-82.76746094 24.53146484 -81.94117188 24.31683594 -81.08984375 24.09570312 C-80.23519531 23.87849609 -79.38054688 23.66128906 -78.5 23.4375 C-77.64535156 23.21642578 -76.79070313 22.99535156 -75.91015625 22.76757812 C-72.90726372 21.99226032 -69.9028855 21.22407377 -66.89282227 20.47705078 C-63.42726777 19.60362198 -59.99674721 18.59609249 -56.55859375 17.62109375 C-54 17 -54 17 -51 17 C-50.67 16.34 -50.34 15.68 -50 15 C-48.30493164 14.49462891 -48.30493164 14.49462891 -46.09765625 14.1015625 C-40.68832207 13.00619109 -35.62118876 11.24614811 -30.4375 9.375 C-29.52419922 9.05015625 -28.61089844 8.7253125 -27.66992188 8.390625 C-25.44488059 7.59846371 -23.22167825 6.8015341 -21 6 C-21 5.34 -21 4.68 -21 4 C-19.824375 3.896875 -18.64875 3.79375 -17.4375 3.6875 C-14.2970405 3.31086641 -12.37003139 2.72846181 -9.375 1.4375 C-5.92266623 -0.03293846 -3.70116553 -0.27081699 0 0 Z " fill="#C3F0FA" transform="translate(725,308)"/>
<path d="M0 0 C1.74600257 -0.00135832 3.49200485 -0.00314066 5.23800659 -0.00531006 C9.93578495 -0.00983045 14.63354111 -0.00811796 19.33131981 -0.00493097 C24.26388988 -0.00238252 29.19645817 -0.0047515 34.12902832 -0.00631714 C42.40014993 -0.00813024 50.67126257 -0.00575369 58.94238281 -0.00097656 C68.49808514 0.00447882 78.05376616 0.00269071 87.60946798 -0.00280297 C95.83398162 -0.00734143 104.05848885 -0.00798148 112.28300333 -0.0053643 C117.18689734 -0.00380742 122.09078132 -0.00359192 126.99467468 -0.00690079 C131.59779993 -0.00979063 136.20089765 -0.00778331 140.80401993 -0.00200653 C142.49147114 -0.00068554 144.17892468 -0.00106184 145.86637497 -0.0032692 C148.17132379 -0.00600629 150.47618469 -0.00256846 152.78112793 0.00241089 C154.07004692 0.00278791 155.35896591 0.00316494 156.68694305 0.00355339 C159.93900009 0.12118318 162.97516566 0.5108658 166.16601562 1.12939453 C166.16601562 1.78939453 166.16601562 2.44939453 166.16601562 3.12939453 C143.24353587 3.16381676 120.32315716 3.07281009 97.40118027 2.92746544 C92.83427103 2.89872275 88.26735488 2.87112208 83.70043945 2.84338379 C75.10958655 2.79104 66.51874004 2.73771645 57.92789555 2.68401194 C48.1232335 2.62276928 38.31856459 2.56266297 28.51389503 2.50263691 C8.39792752 2.37945845 -11.71803126 2.25490234 -31.83398438 2.12939453 C-31.83398438 1.79939453 -31.83398438 1.46939453 -31.83398438 1.12939453 C-21.1973724 0.19391919 -10.66842601 -0.01410299 0 0 Z " fill="#65BFFD" transform="translate(385.833984375,675.87060546875)"/>
<path d="M0 0 C3.48344485 3.78202584 4.24470031 6.77339122 4.0625 11.875 C2.77813426 17.01246295 0.75151774 20.15646677 -3.4296875 23.4140625 C-7.34709429 25.68489184 -10.8578639 26.64213196 -15.25 27.5625 C-16.33764648 27.8090332 -16.33764648 27.8090332 -17.44726562 28.06054688 C-30.23035136 30.89740418 -30.23035136 30.89740418 -35.8125 29.375 C-35.8125 29.045 -35.8125 28.715 -35.8125 28.375 C-34.99571777 28.21418945 -34.17893555 28.05337891 -33.33740234 27.88769531 C-30.282399 27.27955749 -27.23014381 26.65940786 -24.17919922 26.03125 C-22.21897737 25.63142049 -20.25597884 25.2452827 -18.29296875 24.859375 C-17.04902344 24.6015625 -15.80507813 24.34375 -14.5234375 24.078125 C-12.81099854 23.73249512 -12.81099854 23.73249512 -11.06396484 23.37988281 C-6.7676367 22.05207934 -3.05569766 20.16677198 -0.44921875 16.41015625 C0.27171464 14.10582316 0.41989598 12.22463855 0.375 9.8125 C0.36533203 8.66587891 0.36533203 8.66587891 0.35546875 7.49609375 C0.25803505 5.18602284 0.25803505 5.18602284 -0.8125 2.375 C-10.8828135 1.79894393 -21.22430108 3.17893369 -30.8125 6.375 C-32.87143621 6.59825814 -34.93483653 6.78205759 -37 6.9375 C-38.08667969 7.02128906 -39.17335938 7.10507812 -40.29296875 7.19140625 C-41.12441406 7.25199219 -41.95585938 7.31257813 -42.8125 7.375 C-42.1525 7.045 -41.4925 6.715 -40.8125 6.375 C-40.8125 5.715 -40.8125 5.055 -40.8125 4.375 C-38.14583333 3.70833333 -35.47916667 3.04166667 -32.8125 2.375 C-32.14992188 2.19710938 -31.48734375 2.01921875 -30.8046875 1.8359375 C-28.75421128 1.36151359 -26.78264295 1.12691329 -24.6875 0.9375 C-21.29194496 0.59124274 -18.02303408 0.0345211 -14.6875 -0.6875 C-4.70052945 -2.71586146 -4.70052945 -2.71586146 0 0 Z " fill="#A5E5FC" transform="translate(608.8125,430.625)"/>
<path d="M0 0 C-2.78103499 1.85402332 -4.38290752 2.49951298 -7.54052734 3.28100586 C-8.45933685 3.51142075 -9.37814636 3.74183563 -10.32479858 3.97923279 C-11.31847443 4.22198441 -12.31215027 4.46473602 -13.3359375 4.71484375 C-14.36627106 4.97125137 -15.39660461 5.227659 -16.4581604 5.49183655 C-19.76243658 6.31256465 -23.06869256 7.12499816 -26.375 7.9375 C-28.56392998 8.48060458 -30.75273359 9.02421876 -32.94140625 9.56835938 C-38.9572004 11.06103366 -44.9770649 12.53642152 -51 14 C-51.73314423 14.17865601 -52.46628845 14.35731201 -53.22164917 14.54138184 C-59.24785144 16.00267747 -65.12792683 17.2900692 -71.3125 17.875 C-79.646214 18.75306926 -87.76356376 20.55096193 -95.92700195 22.41162109 C-96.91531006 22.63027832 -97.90361816 22.84893555 -98.921875 23.07421875 C-100.24590332 23.37718872 -100.24590332 23.37718872 -101.59667969 23.6862793 C-104.06657442 24.00869038 -105.65473802 23.77755711 -108 23 C-99.04469666 20.70883798 -90.08968727 18.54214689 -81.0390625 16.65234375 C-78.62933809 16.13508928 -76.2559904 15.56949128 -73.875 14.9375 C-69.58993778 13.9007914 -65.30455274 13.19816671 -60.953125 12.50390625 C-58.37636952 12.06422178 -55.85550023 11.53768362 -53.3125 10.9375 C-49.47032185 10.03139217 -45.68516582 9.6170254 -41.75 9.34375 C-41.1725 9.2303125 -40.595 9.116875 -40 9 C-39.67 8.34 -39.34 7.68 -39 7 C-37.906875 7.04125 -36.81375 7.0825 -35.6875 7.125 C-31.91107771 7.32074666 -31.91107771 7.32074666 -29 5 C-26.27159592 4.26861629 -23.56819356 3.60658431 -20.8125 3 C-19.33971715 2.66722647 -17.86706026 2.33389497 -16.39453125 2 C-15.6670166 1.83886719 -14.93950195 1.67773438 -14.18994141 1.51171875 C-12.00779985 1.00182257 -9.85898385 0.40912572 -7.69921875 -0.1875 C-4.24866662 -0.94538262 -3.17411274 -0.98837796 0 0 Z " fill="#ABE8FC" transform="translate(656,358)"/>
<path d="M0 0 C-3.26709124 1.83504687 -6.37847 2.64599866 -10.03662109 3.41699219 C-11.87297623 3.80815216 -11.87297623 3.80815216 -13.74642944 4.20721436 C-15.08873313 4.48725625 -16.43107015 4.76713843 -17.7734375 5.046875 C-19.1756799 5.34309137 -20.57782865 5.63975137 -21.97988892 5.93682861 C-24.93658258 6.56214525 -27.89400134 7.18386339 -30.85205078 7.80273438 C-34.54588264 8.57556158 -38.23844167 9.35425191 -41.93053818 10.13532257 C-49.14080041 11.66056571 -56.35401249 13.17090233 -63.57079697 14.66498566 C-67.88587937 15.55874923 -72.19850346 16.4633621 -76.50965691 17.3758812 C-79.27819834 17.95955883 -82.04858496 18.53407111 -84.81953812 19.10617828 C-86.73693359 19.50478786 -88.65212339 19.91396124 -90.56723022 20.32342529 C-91.72276398 20.55990784 -92.87829773 20.79639038 -94.06884766 21.04003906 C-95.07388336 21.25049866 -96.07891907 21.46095825 -97.1144104 21.67779541 C-100.28969969 22.03234783 -102.88728771 21.66295566 -106 21 C-103.06947855 19.39523271 -100.395595 18.52373509 -97.12719727 17.85498047 C-96.162621 17.65492401 -95.19804474 17.45486755 -94.20423889 17.24874878 C-92.65101173 16.93612595 -92.65101173 16.93612595 -91.06640625 16.6171875 C-89.99631821 16.39805695 -88.92623016 16.17892639 -87.82371521 15.95315552 C-85.56232051 15.4915564 -83.30034535 15.03279322 -81.0378418 14.57666016 C-77.57759657 13.87804795 -74.11979207 13.16820504 -70.66210938 12.45703125 C-68.463679 12.00974114 -66.26511551 11.56310467 -64.06640625 11.1171875 C-63.03294571 10.90472382 -61.99948517 10.69226013 -60.93470764 10.47335815 C-59.96697922 10.27960602 -58.99925079 10.08585388 -58.00219727 9.88623047 C-57.15488541 9.71461395 -56.30757355 9.54299744 -55.43458557 9.36618042 C-52.91992248 8.98795572 -50.539015 8.93570589 -48 9 C-48 8.34 -48 7.68 -48 7 C-46.82308594 6.91363281 -45.64617188 6.82726562 -44.43359375 6.73828125 C-33.59686675 5.84625056 -23.19164457 4.17568722 -12.60522461 1.67700195 C-11.68491455 1.46132568 -10.76460449 1.24564941 -9.81640625 1.0234375 C-9.00631104 0.82669434 -8.19621582 0.62995117 -7.36157227 0.42724609 C-4.86051098 -0.02523579 -2.53619996 -0.07377422 0 0 Z " fill="#95DBFA" transform="translate(586,375)"/>
<path d="M0 0 C0.66 0.33 1.32 0.66 2 1 C1.7834375 2.07636719 1.566875 3.15273438 1.34375 4.26171875 C-0.40758487 13.32016795 -1.43458383 21.74497403 -1 31 C-3.48044315 27.27933528 -3.44381173 24.13459526 -3.625 19.8125 C-3.66367187 19.06291016 -3.70234375 18.31332031 -3.7421875 17.54101562 C-3.83628216 15.69440801 -3.91922319 13.8472381 -4 12 C-8.51931162 15.07001514 -10.60105594 18.47964761 -12.75 23.375 C-13.05292969 24.02210938 -13.35585938 24.66921875 -13.66796875 25.3359375 C-15.89517107 30.24568128 -17 34.62293811 -17 40 C-17.33 40 -17.66 40 -18 40 C-18.10823773 42.24893954 -18.18569645 44.49937575 -18.25 46.75 C-18.29640625 48.00296875 -18.3428125 49.2559375 -18.390625 50.546875 C-17.93416446 54.5819862 -16.96660347 55.41010809 -14 58 C-14.25 60.75 -14.25 60.75 -15 63 C-14.34 63 -13.68 63 -13 63 C-12.67 64.65 -12.34 66.3 -12 68 C-17.87955209 62.75607517 -20.50016203 56.88833516 -21.16015625 49.11328125 C-21.92988103 30.47255506 -10.82159785 14.19225947 0 0 Z " fill="#72C1F8" transform="translate(390,414)"/>
<path d="M0 0 C1.10709193 3.3212758 0.8767476 4.69559988 0.1875 8.0625 C0.01605469 8.94035156 -0.15539062 9.81820313 -0.33203125 10.72265625 C-1 13 -1 13 -3 15 C-3.80077663 17.1063907 -4.54164192 19.23575859 -5.25 21.375 C-7.2483812 27.23727052 -9.73022627 32.62831092 -12.59375 38.12890625 C-14.37467129 41.76495388 -15.66930127 45.49311412 -16.99609375 49.3125 C-21.44504021 61.22252011 -21.44504021 61.22252011 -25 63 C-24.5682746 55.95183191 -21.62565386 50.21549203 -18.6875 43.875 C-17.59955626 41.48188885 -16.5141301 39.08785055 -15.43359375 36.69140625 C-15.15407867 36.0726915 -14.8745636 35.45397675 -14.58657837 34.81651306 C-11.31916805 27.54676083 -8.27802882 20.18444176 -5.25 12.8125 C-4.85124161 11.84289337 -4.85124161 11.84289337 -4.44442749 10.85369873 C-2.95802666 7.23780451 -1.47660739 3.61990382 0 0 Z " fill="#AFE8FB" transform="translate(681,374)"/>
<path d="M0 0 C0 0.66 0 1.32 0 2 C-1.423125 2.0928125 -1.423125 2.0928125 -2.875 2.1875 C-7.17694346 2.79340753 -10.56392628 4.65585681 -14.375 6.66015625 C-20.02947799 9.54629606 -25.73721795 11.891543 -32 13 C-32 13.66 -32 14.32 -32 15 C-34.08203125 16.47265625 -34.08203125 16.47265625 -36.8125 18.0625 C-37.70582031 18.58972656 -38.59914063 19.11695313 -39.51953125 19.66015625 C-42 21 -42 21 -45 22 C-45.6955599 23.31849105 -46.35880897 24.65423023 -47 26 C-48.62109375 27.78125 -48.62109375 27.78125 -50.4375 29.5 C-52.45485771 31.43816391 -54.08881905 33.12829419 -55.6875 35.4375 C-56.120625 35.953125 -56.55375 36.46875 -57 37 C-58.32 37 -59.64 37 -61 37 C-60 34 -60 34 -58.1015625 33.0390625 C-57.40804688 32.69617188 -56.71453125 32.35328125 -56 32 C-54.59735217 30.33310561 -54.59735217 30.33310561 -53.375 28.375 C-43.19840733 14.35054144 -17.55318142 0 0 0 Z " fill="#5EB2F9" transform="translate(352,608)"/>
<path d="M0 0 C1.2957903 3.88737089 0.26890698 6.57724533 -0.8125 10.375 C-0.99103516 11.035 -1.16957031 11.695 -1.35351562 12.375 C-2.35999126 16.02302 -3.54010216 19.51148911 -5 23 C-5.59022104 24.60164528 -6.17317176 26.20598276 -6.75 27.8125 C-10.9199524 39.31474789 -15.18419293 50.74891093 -20 62 C-20.33 62 -20.66 62 -21 62 C-20.49705494 55.4125665 -19.19047222 49.96455199 -16.796875 43.828125 C-16.47720764 42.98384949 -16.15754028 42.13957397 -15.82818604 41.26971436 C-14.81192627 38.59261836 -13.78127392 35.92134304 -12.75 33.25 C-12.0732586 31.47432396 -11.39746969 29.69828462 -10.72265625 27.921875 C-8.82805131 22.94290039 -6.91578892 17.97085348 -5 13 C-4.46661689 11.61269939 -3.93340174 10.2253342 -3.40039062 8.83789062 C-2.26813129 5.89146119 -1.13474272 2.94547366 0 0 Z " fill="#96DBFA" transform="translate(703,440)"/>
<path d="M0 0 C0.66 0.33 1.32 0.66 2 1 C1.81824219 1.54785156 1.63648438 2.09570312 1.44921875 2.66015625 C-0.22599982 7.94353788 -1.57059252 13.25972153 -2.6875 18.6875 C-2.93886719 19.90824219 -3.19023437 21.12898438 -3.44921875 22.38671875 C-4.70703143 30.63832675 -4.00229347 38.27119681 0.53515625 45.41796875 C1.96959852 47.33394956 3.43642542 49.18847993 5 51 C-0.11617882 48.62882735 -2.28035879 45.58949879 -4.609375 40.4453125 C-6.36892526 35.61138323 -6.33998227 31.09056197 -6.1875 26 C-6.17396484 25.12988281 -6.16042969 24.25976562 -6.14648438 23.36328125 C-6.11151678 21.24191373 -6.0577253 19.12087026 -6 17 C-9.87797662 16.56613908 -9.87797662 16.56613908 -11.75 18.5 C-12.1625 18.995 -12.575 19.49 -13 20 C-11.40013936 15.03657693 -8.47460168 11.29801238 -5.375 7.1875 C-4.6015625 6.14819336 -4.6015625 6.14819336 -3.8125 5.08789062 C-2.54657074 3.38826337 -1.27394735 1.69362565 0 0 Z " fill="#6EBDF8" transform="translate(356,480)"/>
<path d="M0 0 C-1.32 0.33 -2.64 0.66 -4 1 C-4 1.66 -4 2.32 -4 3 C-4.82725586 3.176521 -5.65451172 3.35304199 -6.50683594 3.53491211 C-9.58573062 4.19223581 -12.66449155 4.85018148 -15.74316406 5.50854492 C-17.07384018 5.7929729 -18.40456882 6.0771553 -19.73535156 6.36108398 C-21.65183184 6.77001905 -23.5681059 7.17992021 -25.484375 7.58984375 C-26.63647461 7.83597412 -27.78857422 8.08210449 -28.97558594 8.33569336 C-31.33030208 8.85290216 -33.66609575 9.39803265 -36 10 C-49.64781952 13.44317538 -49.64781952 13.44317538 -56 13 C-56 12.34 -56 11.68 -56 11 C-54.88625 10.690625 -53.7725 10.38125 -52.625 10.0625 C-49.2054845 9.17673517 -49.2054845 9.17673517 -47 8 C-44.93296224 7.67984531 -42.86007398 7.39712393 -40.78515625 7.1328125 C-33.24123546 6.09433126 -25.86669114 4.5490711 -18.4375 2.875 C-15.99977926 2.32590628 -13.56101044 1.78143964 -11.12109375 1.2421875 C-9.53445923 0.88423096 -9.53445923 0.88423096 -7.91577148 0.51904297 C-5.20045998 0.03568433 -2.74948096 -0.10081113 0 0 Z " fill="#9ADFFB" transform="translate(562,352)"/>
<path d="M0 0 C1.27055876 3.81167627 0.503841 4.81868698 -1.0625 8.453125 C-1.75859375 10.08519897 -1.75859375 10.08519897 -2.46875 11.75024414 C-2.9740625 12.90516357 -3.479375 14.06008301 -4 15.25 C-4.5053125 16.41974365 -5.010625 17.5894873 -5.53125 18.79467773 C-7.00931456 22.20162598 -8.50265036 25.601492 -10 29 C-10.38414062 29.88252441 -10.76828125 30.76504883 -11.1640625 31.67431641 C-12.09606297 33.8100026 -13.04284101 35.93799509 -14 38.0625 C-14.515625 39.20847656 -15.03125 40.35445313 -15.5625 41.53515625 C-17 44 -17 44 -20 45 C-19.54705135 43.24859857 -19.08741252 41.49892656 -18.625 39.75 C-18.36976563 38.77546875 -18.11453125 37.8009375 -17.8515625 36.796875 C-17.10401491 34.34162697 -16.22876183 32.24382595 -15 30 C-14.34 30 -13.68 30 -13 30 C-12.87882813 29.40832031 -12.75765625 28.81664062 -12.6328125 28.20703125 C-11.73255357 23.96196415 -10.79543379 19.97560339 -9 16 C-8.34 16 -7.68 16 -7 16 C-6.896875 15.360625 -6.79375 14.72125 -6.6875 14.0625 C-5.76096927 9.93522674 -4.38339371 5.99357051 -3 2 C-2.01 2 -1.02 2 0 2 C0 1.34 0 0.68 0 0 Z " fill="#AAE7FB" transform="translate(692,419)"/>
<path d="M0 0 C1.38421945 4.15265836 -0.22698287 6.77467603 -1.82421875 10.6328125 C-2.27822807 11.75972 -2.27822807 11.75972 -2.7414093 12.90939331 C-3.7146305 15.3182745 -4.70104115 17.72151383 -5.6875 20.125 C-6.33351477 21.72101746 -6.97870648 23.31736833 -7.62304688 24.9140625 C-10.62623852 32.33255593 -13.67818108 39.71722739 -17 47 C-17.66 47 -18.32 47 -19 47 C-19.33 47.66 -19.66 48.32 -20 49 C-19.34295615 45.00840096 -18.11572242 41.54835012 -16.56640625 37.81640625 C-16.08236328 36.64142578 -15.59832031 35.46644531 -15.09960938 34.25585938 C-14.58753193 33.02461795 -14.07515967 31.79349911 -13.5625 30.5625 C-12.56205674 28.14785782 -11.5632998 25.73251611 -10.56640625 23.31640625 C-10.12240479 22.24849854 -9.67840332 21.18059082 -9.22094727 20.08032227 C-8.0326186 17.08229331 -6.99074369 14.06830318 -6 11 C-5.53184434 9.60043519 -5.05410789 8.2040003 -4.5625 6.8125 C-4.33691406 6.15894531 -4.11132812 5.50539063 -3.87890625 4.83203125 C-2.88888231 2.76838135 -1.69167425 1.5220356 0 0 Z " fill="#B2E9FA" transform="translate(711,372)"/>
<path d="M0 0 C0.33 0 0.66 0 1 0 C0.49498753 5.05368951 -0.5832953 8.71391088 -3.01953125 13.16015625 C-3.62990234 14.28357422 -4.24027344 15.40699219 -4.86914062 16.56445312 C-5.84082031 18.31347656 -5.84082031 18.31347656 -6.8125 20.0625 C-7.44220703 21.22072266 -8.07191406 22.37894531 -8.72070312 23.57226562 C-16.97942037 38.65980679 -16.97942037 38.65980679 -21 40 C-19.15002348 34.95881397 -16.44038536 30.60656494 -13.65625 26.03515625 C-12.03805126 23.06973072 -10.96293486 20.23064645 -10 17 C-9.34 17 -8.68 17 -8 17 C-7.01 13.7 -6.02 10.4 -5 7 C-4.34 7 -3.68 7 -3 7 C-3 5.68 -3 4.36 -3 3 C-2.34 3 -1.68 3 -1 3 C-0.67 2.01 -0.34 1.02 0 0 Z " fill="#8ED4F7" transform="translate(671,465)"/>
<path d="M0 0 C-0.33 0.99 -0.66 1.98 -1 3 C-3.61694336 3.85961914 -3.61694336 3.85961914 -7.08984375 4.53515625 C-8.34990234 4.78716797 -9.60996094 5.03917969 -10.90820312 5.29882812 C-12.25123879 5.55371915 -13.59433824 5.80827431 -14.9375 6.0625 C-16.23236328 6.31837891 -17.52722656 6.57425781 -18.86132812 6.83789062 C-21.40343398 7.33909649 -23.94688146 7.83355125 -26.49169922 8.32080078 C-30.28939286 9.05602581 -34.07337901 9.84647466 -37.85375977 10.66577148 C-40.26295508 11.04094932 -42.56558247 11.05578262 -45 11 C-44.34 10.67 -43.68 10.34 -43 10 C-43 9.34 -43 8.68 -43 8 C-41.93458984 7.92652344 -41.93458984 7.92652344 -40.84765625 7.8515625 C-39.92855469 7.77679688 -39.00945313 7.70203125 -38.0625 7.625 C-37.14597656 7.55539062 -36.22945312 7.48578125 -35.28515625 7.4140625 C-34.15400391 7.20910156 -34.15400391 7.20910156 -33 7 C-32.67 6.34 -32.34 5.68 -32 5 C-29.88893957 4.73000536 -27.77542808 4.47275595 -25.65576172 4.28173828 C-21.07292087 3.7955645 -16.57943487 2.8358082 -12.0625 1.9375 C-10.19953769 1.56999412 -8.33627056 1.20402894 -6.47265625 0.83984375 C-5.66062744 0.67863037 -4.84859863 0.51741699 -4.01196289 0.35131836 C-2 0 -2 0 0 0 Z " fill="#9FE4FC" transform="translate(565,436)"/>
<path d="M0 0 C0.495 1.485 0.495 1.485 1 3 C-1.06228466 3.48009262 -3.12483701 3.95903544 -5.1875 4.4375 C-6.33605469 4.70433594 -7.48460937 4.97117187 -8.66796875 5.24609375 C-11.4409723 5.87351425 -14.208878 6.4609959 -17 7 C-17.94806519 7.18502075 -17.94806519 7.18502075 -18.9152832 7.3737793 C-21.12919311 7.80118376 -23.34549943 8.21395097 -25.5625 8.625 C-26.69461914 8.84542969 -26.69461914 8.84542969 -27.84960938 9.0703125 C-31.57834181 9.75363968 -34.37461956 10.1009854 -38 9 C-37.01 8.34 -36.02 7.68 -35 7 C-34.34 6.34 -33.68 5.68 -33 5 C-31.17563753 5.01721097 -29.35120302 5.03976385 -27.52734375 5.0859375 C-22.26846265 4.90711929 -17.13299087 3.58774721 -12 2.5 C-10.84371094 2.26152344 -9.68742188 2.02304687 -8.49609375 1.77734375 C-5.66252827 1.19189634 -2.83066529 0.59928499 0 0 Z " fill="#8FDAFC" transform="translate(554,499)"/>
<path d="M0 0 C0.33 0.66 0.66 1.32 1 2 C-0.04659783 4.42676047 -1.15429726 6.72422908 -2.375 9.0625 C-2.73424561 9.76262207 -3.09349121 10.46274414 -3.46362305 11.18408203 C-4.23374955 12.67990148 -5.00790126 14.173654 -5.78564453 15.66552734 C-7.01418824 18.02727542 -8.22461507 20.39771812 -9.43359375 22.76953125 C-10.22559849 24.30518507 -11.0185419 25.84035519 -11.8125 27.375 C-12.18487793 28.105979 -12.55725586 28.83695801 -12.94091797 29.59008789 C-14.70230854 32.95140159 -15.78714979 34.85809986 -19 37 C-19 36.34 -19 35.68 -19 35 C-19.99 34.67 -20.98 34.34 -22 34 C-20.515 33.505 -20.515 33.505 -19 33 C-17.54814734 30.97656842 -17.54814734 30.97656842 -16.2578125 28.44140625 C-15.74863281 27.49716797 -15.23945312 26.55292969 -14.71484375 25.58007812 C-14.19019531 24.58427734 -13.66554688 23.58847656 -13.125 22.5625 C-12.60808594 21.60150391 -12.09117187 20.64050781 -11.55859375 19.65039062 C-8.59750284 14.11978884 -5.76432476 8.54600039 -3.07373047 2.87866211 C-2 1 -2 1 0 0 Z " fill="#9DE0FB" transform="translate(655,438)"/>
<path d="M0 0 C-10.18446282 3.66796745 -20.40469919 6.73623135 -30.9375 9.25 C-32.48038696 9.61859131 -32.48038696 9.61859131 -34.05444336 9.99462891 C-52.77982712 14.36534102 -52.77982712 14.36534102 -61 14 C-61 13.67 -61 13.34 -61 13 C-60.38511719 12.86722656 -59.77023437 12.73445312 -59.13671875 12.59765625 C-58.32847656 12.42105469 -57.52023437 12.24445312 -56.6875 12.0625 C-55.88699219 11.88847656 -55.08648437 11.71445312 -54.26171875 11.53515625 C-51.854599 11.00113841 -51.854599 11.00113841 -49 10 C-46.8125 10.4375 -46.8125 10.4375 -45 11 C-45 10.34 -45 9.68 -45 9 C-43.94039063 8.87882813 -42.88078125 8.75765625 -41.7890625 8.6328125 C-40.40098676 8.46399248 -39.01296881 8.29469692 -37.625 8.125 C-36.92632813 8.04636719 -36.22765625 7.96773437 -35.5078125 7.88671875 C-31.30927841 7.44779555 -31.30927841 7.44779555 -28 5 C-25.63671875 4.5078125 -25.63671875 4.5078125 -22.6875 4.125 C-16.7827423 3.24784396 -11.35362186 1.64130301 -5.71484375 -0.29296875 C-3 -1 -3 -1 0 0 Z " fill="#6ABEF9" transform="translate(550,594)"/>
<path d="M0 0 C17.16 0 34.32 0 52 0 C51.67 0.99 51.34 1.98 51 3 C50.443125 2.814375 49.88625 2.62875 49.3125 2.4375 C47.00969271 1.84941314 47.00969271 1.84941314 44.76171875 2.46484375 C41.61940077 3.0737512 38.69947383 3.13247541 35.5 3.125 C34.3965625 3.12757813 33.293125 3.13015625 32.15625 3.1328125 C29 3 29 3 26.62963867 2.4934082 C23.92581419 1.98608026 21.5165395 1.91674835 18.76953125 1.97265625 C17.80208984 1.98490234 16.83464844 1.99714844 15.83789062 2.00976562 C13.80917691 2.04512732 11.78052522 2.08423272 9.75195312 2.12695312 C8.78837891 2.13791016 7.82480469 2.14886719 6.83203125 2.16015625 C5.95264893 2.17699463 5.0732666 2.19383301 4.16723633 2.21118164 C2 2 2 2 0 0 Z " fill="#5EAFF7" transform="translate(316,650)"/>
<path d="M0 0 C-3.61973402 1.31626692 -6.09567131 2 -10 2 C-10 2.66 -10 3.32 -10 4 C-10.68102783 4.176521 -11.36205566 4.35304199 -12.0637207 4.53491211 C-15.14692465 5.33470936 -18.22971588 6.13608616 -21.3125 6.9375 C-22.38435547 7.21529297 -23.45621094 7.49308594 -24.56054688 7.77929688 C-26.10258789 8.18051758 -26.10258789 8.18051758 -27.67578125 8.58984375 C-28.62364502 8.83597412 -29.57150879 9.08210449 -30.5480957 9.33569336 C-32.38206843 9.83258072 -34.19741361 10.39913787 -36 11 C-37.72532263 11.22008052 -39.45534033 11.40503094 -41.1875 11.5625 C-42.53908203 11.68818359 -42.53908203 11.68818359 -43.91796875 11.81640625 C-44.60503906 11.87699219 -45.29210937 11.93757813 -46 12 C-42.43253961 10.12238927 -38.8762805 9.10750871 -35 8 C-34.35869141 7.67523682 -33.71738281 7.35047363 -33.05664062 7.01586914 C-30.91331524 5.95718242 -28.9065699 5.34045664 -26.59375 4.74609375 C-25.76746094 4.53146484 -24.94117188 4.31683594 -24.08984375 4.09570312 C-23.23519531 3.87849609 -22.38054688 3.66128906 -21.5 3.4375 C-20.64535156 3.21642578 -19.79070313 2.99535156 -18.91015625 2.76757812 C-15.89307588 1.98859716 -12.87477326 1.21601179 -9.84960938 0.46899414 C-8.5565183 0.14111294 -7.27328867 -0.22709729 -6 -0.625 C-3.69461938 -1.05725887 -2.21265195 -0.71120955 0 0 Z " fill="#B7EBFA" transform="translate(668,328)"/>
<path d="M0 0 C0.33 0 0.66 0 1 0 C0.51424682 8.18714904 -1.88365233 15.34594185 -4.5625 23.0625 C-4.98724609 24.30966797 -5.41199219 25.55683594 -5.84960938 26.84179688 C-6.89157064 29.8974361 -7.94186513 32.94993183 -9 36 C-9.66 36 -10.32 36 -11 36 C-11.33 36.66 -11.66 37.32 -12 38 C-10.4484861 30.12373545 -8.01290684 22.65852618 -5.4375 15.0625 C-5.02564453 13.83208984 -4.61378906 12.60167969 -4.18945312 11.33398438 C-1.15491071 2.30982143 -1.15491071 2.30982143 0 0 Z " fill="#99DEFA" transform="translate(728,463)"/>
<path d="M0 0 C-4.39443018 0.96484133 -8.79078281 1.92063938 -13.1875 2.875 C-14.41404297 3.14441406 -15.64058594 3.41382813 -16.90429688 3.69140625 C-22.99633209 5.00947192 -29.09607245 6.25781185 -35.23828125 7.3203125 C-36.27637939 7.50094238 -37.31447754 7.68157227 -38.3840332 7.86767578 C-41 8 -41 8 -44 6 C-7.27165525 -2.05042627 -7.27165525 -2.05042627 0 0 Z " fill="#8BD5FB" transform="translate(524,389)"/>
<path d="M0 0 C1.32 0.66 2.64 1.32 4 2 C3.40687012 2.15557373 2.81374023 2.31114746 2.20263672 2.47143555 C-8.54896232 5.30655335 -19.14934207 8.16008954 -29.515625 12.21484375 C-32 13 -32 13 -34 12 C-30.66678599 8.28731239 -26.64827767 7.41361964 -22 6 C-20.67507831 5.56855899 -19.35091385 5.13478853 -18.02734375 4.69921875 C-16.60169442 4.23657244 -15.17591227 3.77433525 -13.75 3.3125 C-13.06462158 3.08578613 -12.37924316 2.85907227 -11.6730957 2.62548828 C-7.98520798 1.451231 -4.86178014 0.84756131 -1 1 C-0.67 0.67 -0.34 0.34 0 0 Z " fill="#60B4FA" transform="translate(359,629)"/>
<path d="M0 0 C-2.76886123 1.00577013 -5.53984104 2.00480147 -8.3125 3 C-9.49102539 3.42925781 -9.49102539 3.42925781 -10.69335938 3.8671875 C-11.45068359 4.13789062 -12.20800781 4.40859375 -12.98828125 4.6875 C-13.68477783 4.93886719 -14.38127441 5.19023438 -15.09887695 5.44921875 C-17 6 -17 6 -20 6 C-20 6.66 -20 7.32 -20 8 C-25.45461169 9.38529821 -30.36718401 10.2396943 -36 10 C-36 10.66 -36 11.32 -36 12 C-43.625 13.25 -43.625 13.25 -47 11 C-46.08822998 10.77860352 -45.17645996 10.55720703 -44.23706055 10.32910156 C-40.80092272 9.49158246 -37.36625043 8.64847761 -33.93237305 7.80175781 C-32.45602136 7.4388916 -30.97914486 7.07815287 -29.50170898 6.71972656 C-21.52980167 4.78419396 -13.80307738 2.80257738 -6.21020508 -0.37207031 C-3.71608515 -1.08066155 -2.41442174 -0.85560444 0 0 Z " fill="#71C3FA" transform="translate(530,572)"/>
<path d="M0 0 C0 3 0 3 -1.44140625 4.76171875 C-10.51122358 12.99637795 -22.62270133 20.41944567 -35 22 C-35.99 21.67 -36.98 21.34 -38 21 C-28.77448747 16.40774487 -28.77448747 16.40774487 -23 17 C-23 16.34 -23 15.68 -23 15 C-22.49210938 14.75765625 -21.98421875 14.5153125 -21.4609375 14.265625 C-13.89870515 10.58363921 -5.99682679 5.99682679 0 0 Z " fill="#61B3F5" transform="translate(662,657)"/>
<path d="M0 0 C0.33 0.66 0.66 1.32 1 2 C-1.23945043 5.27817235 -3.49333634 8.54615846 -5.75 11.8125 C-6.38421875 12.74126953 -7.0184375 13.67003906 -7.671875 14.62695312 C-8.290625 15.51962891 -8.909375 16.41230469 -9.546875 17.33203125 C-10.39523926 18.56530151 -10.39523926 18.56530151 -11.26074219 19.82348633 C-12.9943272 21.99290104 -14.70976035 23.44904269 -17 25 C-16.71125 24.443125 -16.4225 23.88625 -16.125 23.3125 C-14.97046893 21.0646714 -14.97046893 21.0646714 -14.2734375 18.83984375 C-12.51554949 14.91964564 -10.06021041 11.68346047 -7.5 8.25 C-7.00113281 7.56550781 -6.50226562 6.88101562 -5.98828125 6.17578125 C-2.26221546 1.13110773 -2.26221546 1.13110773 0 0 Z " fill="#93DCFB" transform="translate(630,483)"/>
<path d="M0 0 C-2.88300095 2.88300095 -6.32669194 3.20418003 -10.1875 4.0625 C-10.93064453 4.23587891 -11.67378906 4.40925781 -12.43945312 4.58789062 C-25.34954793 7.54103238 -25.34954793 7.54103238 -31 6 C-31 5.67 -31 5.34 -31 5 C-27.14830593 4.15495567 -23.29330126 3.32608365 -19.4375 2.5 C-18.35146484 2.26152344 -17.26542969 2.02304687 -16.14648438 1.77734375 C-10.65874671 0.60973999 -5.61344746 -0.32214907 0 0 Z " fill="#A0E2FB" transform="translate(604,454)"/>
<path d="M0 0 C1.46482631 3.8466907 0.48428033 6.29050428 -0.87109375 10.078125 C-1.48500977 11.81835938 -1.48500977 11.81835938 -2.11132812 13.59375 C-2.7677832 15.40359375 -2.7677832 15.40359375 -3.4375 17.25 C-3.87126953 18.47203125 -4.30503906 19.6940625 -4.75195312 20.953125 C-5.82516697 23.97227605 -6.90815938 26.98754556 -8 30 C-8.66 29.67 -9.32 29.34 -10 29 C-9.34 25.04 -8.68 21.08 -8 17 C-7.34 17 -6.68 17 -6 17 C-5.87625 16.113125 -5.7525 15.22625 -5.625 14.3125 C-5.05587264 11.29612498 -4.23385564 8.79673946 -3 6 C-2.34 6 -1.68 6 -1 6 C-0.67 4.02 -0.34 2.04 0 0 Z " fill="#A2E1F9" transform="translate(739,433)"/>
<path d="M0 0 C-0.66 0 -1.32 0 -2 0 C-2.33 0.99 -2.66 1.98 -3 3 C-3 2.34 -3 1.68 -3 1 C-3.99797607 1.18175781 -3.99797607 1.18175781 -5.01611328 1.3671875 C-8.05145944 1.9168584 -11.08818671 2.45849594 -14.125 3 C-15.69507813 3.28617188 -15.69507813 3.28617188 -17.296875 3.578125 C-18.31523437 3.75859375 -19.33359375 3.9390625 -20.3828125 4.125 C-21.31496582 4.29257812 -22.24711914 4.46015625 -23.20751953 4.6328125 C-26.1684306 5.0221472 -29.01701762 5.06158415 -32 5 C-32.33 4.34 -32.66 3.68 -33 3 C-26.36780506 1.45797725 -19.87379685 0.6561774 -13.078125 0.24609375 C-9.96081521 0.04309888 -9.96081521 0.04309888 -6.7578125 -0.5546875 C-4.06833463 -0.9889658 -2.54140706 -0.87971783 0 0 Z " fill="#66BBFA" transform="translate(464,613)"/>
<path d="M0 0 C0.33 0.66 0.66 1.32 1 2 C-0.375 4 -0.375 4 -2 6 C-2.66 6 -3.32 6 -4 6 C-4.1043335 6.59329102 -4.20866699 7.18658203 -4.31616211 7.79785156 C-5.10534033 10.33922519 -6.04491673 11.39312304 -7.94140625 13.234375 C-8.52470703 13.80800781 -9.10800781 14.38164063 -9.70898438 14.97265625 C-10.32064453 15.55917969 -10.93230469 16.14570312 -11.5625 16.75 C-12.17802734 17.35199219 -12.79355469 17.95398438 -13.42773438 18.57421875 C-14.94514813 20.05634381 -16.47170596 21.5290967 -18 23 C-18.66 22.67 -19.32 22.34 -20 22 C-19.39671875 21.43152344 -18.7934375 20.86304688 -18.171875 20.27734375 C-12.87718231 15.30058213 -12.87718231 15.30058213 -8.875 9.3125 C-6.56399049 5.22971654 -3.6819583 2.8235242 0 0 Z " fill="#8FDCFD" transform="translate(611,509)"/>
<path d="M0 0 C0.66 0 1.32 0 2 0 C0.75808863 3.82922673 -0.59431831 7.6037868 -2 11.375 C-3.65104831 15.87841908 -4.94133808 20.32424318 -6 25 C-6.66 24.67 -7.32 24.34 -8 24 C-7.505 19.545 -7.505 19.545 -7 15 C-6.34 15 -5.68 15 -5 15 C-4.89042969 14.25234375 -4.78085937 13.5046875 -4.66796875 12.734375 C-4.50941406 11.74953125 -4.35085938 10.7646875 -4.1875 9.75 C-4.03667969 8.77546875 -3.88585937 7.8009375 -3.73046875 6.796875 C-2.96101188 3.8507193 -2.08214678 2.20277494 0 0 Z " fill="#5EB0F8" transform="translate(300,612)"/>
<path d="M0 0 C1.52521925 4.57565776 -0.73188243 7.43671491 -2.75 11.625 C-3.29140625 12.80835938 -3.29140625 12.80835938 -3.84375 14.015625 C-4.19953125 14.76585937 -4.5553125 15.51609375 -4.921875 16.2890625 C-5.24768555 16.97693848 -5.57349609 17.66481445 -5.90917969 18.37353516 C-7 20 -7 20 -10 21 C-9.54705135 19.24859857 -9.08741252 17.49892656 -8.625 15.75 C-8.36976563 14.77546875 -8.11453125 13.8009375 -7.8515625 12.796875 C-7.10401491 10.34162697 -6.22876183 8.24382595 -5 6 C-4.34 6 -3.68 6 -3 6 C-3 5.34 -3 4.68 -3 4 C-2.34 4 -1.68 4 -1 4 C-0.67 2.68 -0.34 1.36 0 0 Z " fill="#A3E3FA" transform="translate(682,443)"/>
<path d="M0 0 C0 0.33 0 0.66 0 1 C-3.37321776 1.67590188 -6.74882242 2.33905518 -10.125 3 C-11.07632812 3.19078125 -12.02765625 3.3815625 -13.0078125 3.578125 C-17.73638116 4.49756891 -22.15562735 5.2609763 -27 5 C-27.33 4.34 -27.66 3.68 -28 3 C-27.2575 3.020625 -26.515 3.04125 -25.75 3.0625 C-22.34514176 2.98511686 -19.49958659 2.14233638 -16.23046875 1.2109375 C-10.39541004 -0.39201829 -5.91793398 -1.4794835 0 0 Z " fill="#63B7FB" transform="translate(391,625)"/>
<path d="M0 0 C0.33 0 0.66 0 1 0 C1.04898437 1.07121094 1.09796875 2.14242187 1.1484375 3.24609375 C1.22345294 4.64325639 1.2990013 6.0403905 1.375 7.4375 C1.4059375 8.14455078 1.436875 8.85160156 1.46875 9.58007812 C1.57280629 11.39239188 1.77919892 13.19817988 2 15 C2.66 15.33 3.32 15.66 4 16 C3.814375 16.969375 3.62875 17.93875 3.4375 18.9375 C3.2209375 20.4534375 3.2209375 20.4534375 3 22 C3.33 22.33 3.66 22.66 4 23 C4.04063832 24.66617115 4.042721 26.33388095 4 28 C4.66 28 5.32 28 6 28 C6.33 29.32 6.66 30.64 7 32 C6.01 32.495 6.01 32.495 5 33 C4.34865075 31.43979133 3.70417036 29.87671421 3.0625 28.3125 C2.70285156 27.44238281 2.34320313 26.57226562 1.97265625 25.67578125 C-0.10150563 19.96975359 -0.12408204 14.68938051 -0.0625 8.6875 C-0.05798828 7.85154297 -0.05347656 7.01558594 -0.04882812 6.15429688 C-0.03710548 4.10283351 -0.01917203 2.05140727 0 0 Z " fill="#59A8F3" transform="translate(282,627)"/>
<path d="M0 0 C2.60841274 2.23578235 3.35604454 3.54917818 4.1875 6.875 C4.26396165 9.2070802 4.27893299 11.54345878 4.1875 13.875 C3.1975 14.205 2.2075 14.535 1.1875 14.875 C1.14882813 13.97007812 1.14882813 13.97007812 1.109375 13.046875 C0.75374172 7.91199698 0.75374172 7.91199698 -1.5 3.375 C-4.27779653 1.57318603 -6.5391502 1.17257725 -9.8125 0.875 C-9.8125 0.545 -9.8125 0.215 -9.8125 -0.125 C-6.04946384 -0.93663525 -3.62506003 -1.45002401 0 0 Z " fill="#98E0FC" transform="translate(566.8125,500.125)"/>
<path d="M0 0 C0 3.47417001 -0.80499495 6.11311069 -1.8125 9.4375 C-2.14894531 10.57058594 -2.48539063 11.70367187 -2.83203125 12.87109375 C-3.91940791 15.78409946 -5.05780642 17.61975733 -7 20 C-7.71162443 21.64797236 -8.39031953 23.31165408 -9 25 C-10.12803624 21.61589129 -9.91598677 21.0846502 -8.671875 17.91015625 C-8.36636719 17.12576172 -8.06085937 16.34136719 -7.74609375 15.53320312 C-7.41738281 14.71787109 -7.08867188 13.90253906 -6.75 13.0625 C-6.28013672 11.84530273 -6.28013672 11.84530273 -5.80078125 10.60351562 C-4.25389755 6.69137616 -2.82050941 3.19483627 0 0 Z " fill="#A6E2F9" transform="translate(718,404)"/>
<path d="M0 0 C1.17790906 3.53372717 0.82375082 5.40545095 0 9 C-0.99 10.485 -0.99 10.485 -2 12 C-2.66 12 -3.32 12 -4 12 C-4.226875 12.680625 -4.45375 13.36125 -4.6875 14.0625 C-6.35572357 17.79614324 -8.55729608 20.72163421 -11 24 C-11.66 23.67 -12.32 23.34 -13 23 C-13 22.01 -13 21.02 -13 20 C-11.89591797 19.17242188 -11.89591797 19.17242188 -10.76953125 18.328125 C-7.14681175 15.28279239 -5.6583165 11.98332879 -3.6875 7.75 C-3.32849609 7.00492188 -2.96949219 6.25984375 -2.59960938 5.4921875 C-1.72199241 3.66674422 -0.85945177 1.8340658 0 0 Z " fill="#68BBF9" transform="translate(635,624)"/>
<path d="M0 0 C-2.3734329 2.81531594 -4.19330296 3.53124018 -7.78125 4.203125 C-8.70550781 4.3784375 -9.62976563 4.55375 -10.58203125 4.734375 C-11.54496094 4.90453125 -12.50789062 5.0746875 -13.5 5.25 C-14.94439453 5.5284375 -14.94439453 5.5284375 -16.41796875 5.8125 C-23.59732985 7.13422338 -23.59732985 7.13422338 -27 6 C-22.8803623 4.70756464 -19.33168317 3.73747375 -15 4 C-15 3.34 -15 2.68 -15 2 C-9.92523206 0.73694665 -5.27203646 -0.27036084 0 0 Z " fill="#95DBFA" transform="translate(563,462)"/>
<path d="M0 0 C0.33 0 0.66 0 1 0 C1.37851209 5.93002267 0.10575375 10.47239641 -2 16 C-2.66 16 -3.32 16 -4 16 C-4.12117187 16.62648438 -4.24234375 17.25296875 -4.3671875 17.8984375 C-4.53476562 18.71570313 -4.70234375 19.53296875 -4.875 20.375 C-5.03742187 21.18710937 -5.19984375 21.99921875 -5.3671875 22.8359375 C-6 25 -6 25 -8 27 C-6.68764148 20.63569826 -4.98780585 14.57878972 -2.875 8.4375 C-2.59785156 7.61958984 -2.32070313 6.80167969 -2.03515625 5.95898438 C-1.36094863 3.97123432 -0.68107796 1.98540651 0 0 Z " fill="#93DFFE" transform="translate(714,504)"/>
<path d="M0 0 C2.475 0.495 2.475 0.495 5 1 C2.22226858 2.85182095 1.11616555 3.3341681 -2.01171875 3.8515625 C-2.76904297 3.98046875 -3.52636719 4.109375 -4.30664062 4.2421875 C-5.09232422 4.36851562 -5.87800781 4.49484375 -6.6875 4.625 C-7.88342773 4.82609375 -7.88342773 4.82609375 -9.10351562 5.03125 C-11.0679402 5.3606146 -13.03383927 5.68116313 -15 6 C-15.33 5.01 -15.66 4.02 -16 3 C-10.62915894 2.31798844 -5.41499441 1.88478735 0 2 C0 1.34 0 0.68 0 0 Z " fill="#5FB4F8" transform="translate(413,619)"/>
<path d="M0 0 C0.33 0 0.66 0 1 0 C3.10565289 13.45703617 3.10565289 13.45703617 -0.9375 19.375 C-1.92428698 20.61129349 -2.93364379 21.8316445 -4 23 C-4.66 22.67 -5.32 22.34 -6 22 C-4.35167464 16.29425837 -4.35167464 16.29425837 -2.46875 14.71875 C-0.23851844 12.10890455 -0.47928062 9.68146849 -0.3125 6.3125 C-0.24675781 5.13300781 -0.18101562 3.95351563 -0.11328125 2.73828125 C-0.07589844 1.83464844 -0.03851563 0.93101562 0 0 Z " fill="#65BAFC" transform="translate(307,589)"/>
<path d="M0 0 C0.33 0.66 0.66 1.32 1 2 C0.71125 2.556875 0.4225 3.11375 0.125 3.6875 C-1.20025728 6.08294895 -1.20025728 6.08294895 -1.375 9.375 C-2.08161511 13.47336766 -3.46122525 15.74719486 -6 19 C-6.33 19 -6.66 19 -7 19 C-6.67422369 11.83292123 -3.34556372 6.23072876 0 0 Z " fill="#A1E0F9" transform="translate(663,418)"/>
<path d="M0 0 C-0.99 0.33 -1.98 0.66 -3 1 C-3.33 1.99 -3.66 2.98 -4 4 C-4.78375 3.79375 -5.5675 3.5875 -6.375 3.375 C-10.45818561 2.95260149 -13.57714694 3.58317407 -17.53515625 4.52734375 C-20.08199792 5.01572385 -22.41334352 5.07838353 -25 5 C-22.09009069 2.09009069 -18.66646801 2.02006532 -14.75 1.375 C-13.99847656 1.2409375 -13.24695313 1.106875 -12.47265625 0.96875 C-8.26568764 0.24923355 -4.28514169 -0.15011643 0 0 Z " fill="#6FC0F8" transform="translate(419,526)"/>
<path d="M0 0 C0 0.33 0 0.66 0 1 C-1.56116819 1.33951619 -3.12401338 1.67132544 -4.6875 2 C-5.99267578 2.2784375 -5.99267578 2.2784375 -7.32421875 2.5625 C-9.93712964 2.98972047 -12.35813038 3.07616201 -15 3 C-15 3.66 -15 4.32 -15 5 C-17.64 5.33 -20.28 5.66 -23 6 C-22.34 5.67 -21.68 5.34 -21 5 C-21 4.34 -21 3.68 -21 3 C-20.28972656 2.95101563 -19.57945312 2.90203125 -18.84765625 2.8515625 C-17.92855469 2.77679688 -17.00945313 2.70203125 -16.0625 2.625 C-15.14597656 2.55539062 -14.22945312 2.48578125 -13.28515625 2.4140625 C-12.15400391 2.20910156 -12.15400391 2.20910156 -11 2 C-10.67 1.34 -10.34 0.68 -10 0 C-6.30581799 -1.231394 -3.7943739 -0.64432764 0 0 Z " fill="#96DCFA" transform="translate(543,441)"/>
<path d="M0 0 C3.63 0 7.26 0 11 0 C7 2 7 2 3 2 C3 2.66 3 3.32 3 4 C-0.47325181 5.1577506 -3.36067448 5.06866652 -7 5 C-7 4.34 -7 3.68 -7 3 C-4.69 2.34 -2.38 1.68 0 1 C0 0.67 0 0.34 0 0 Z " fill="#91D7F9" transform="translate(513,360)"/>
<path d="M0 0 C1.18161943 4.72647772 0.4539041 6.24412292 -1.3125 10.6875 C-1.98732422 12.42580078 -1.98732422 12.42580078 -2.67578125 14.19921875 C-4 17 -4 17 -6 18 C-7.39195915 13.82412255 -5.82323219 11.86525224 -4 8 C-3.34 8 -2.68 8 -2 8 C-1.34 5.36 -0.68 2.72 0 0 Z " fill="#65B8F6" transform="translate(674,632)"/>
<path d="M0 0 C0 5.32899741 -2.11378986 9.00571545 -5.5625 12.875 C-8 15 -8 15 -10 16 C-8.39270035 12.59963241 -6.46281671 9.47943574 -4.4375 6.3125 C-3.81746094 5.33925781 -3.19742188 4.36601563 -2.55859375 3.36328125 C-1 1 -1 1 0 0 Z " fill="#8AD7FA" transform="translate(647,508)"/>
<path d="M0 0 C0.99 0.33 1.98 0.66 3 1 C-0.60778414 5.91970564 -3.24665785 7.96940865 -9 10 C-9 9.01 -9 8.02 -9 7 C-7.68 7 -6.36 7 -5 7 C-4.67 6.01 -4.34 5.02 -4 4 C-2.70644173 2.62804426 -1.37701298 1.28817344 0 0 Z " fill="#8BD7FB" transform="translate(567,516)"/>
<path d="M0 0 C0.33 0.99 0.66 1.98 1 3 C-0.41377782 3.36552803 -1.83120576 3.71695495 -3.25 4.0625 C-4.03890625 4.25972656 -4.8278125 4.45695312 -5.640625 4.66015625 C-8.10394822 5.01497267 -9.65604132 4.76877544 -12 4 C-9.57869669 1.57869669 -8.19888623 1.47159496 -4.875 0.875 C-3.50988281 0.62363281 -3.50988281 0.62363281 -2.1171875 0.3671875 C-1.06917969 0.18542969 -1.06917969 0.18542969 0 0 Z " fill="#96DEFC" transform="translate(554,499)"/>
<path d="M0 0 C0.33 0.66 0.66 1.32 1 2 C-0.07674702 4.28258633 -1.19546116 6.4356434 -2.4375 8.625 C-2.77587891 9.23601562 -3.11425781 9.84703125 -3.46289062 10.4765625 C-4.30146192 11.988353 -5.14982577 13.49470399 -6 15 C-7 13 -7 13 -6.0625 9.875 C-5.711875 8.92625 -5.36125 7.9775 -5 7 C-4.34 7 -3.68 7 -3 7 C-3 5.68 -3 4.36 -3 3 C-2.34 3 -1.68 3 -1 3 C-0.67 2.01 -0.34 1.02 0 0 Z " fill="#A4E9FE" transform="translate(671,465)"/>
<path d="M0 0 C1.45047396 2.90094791 0.45356803 4.55972596 -0.4375 7.625 C-0.72496094 8.62789063 -1.01242187 9.63078125 -1.30859375 10.6640625 C-1.65083984 11.82035156 -1.65083984 11.82035156 -2 13 C-2.66 13 -3.32 13 -4 13 C-4.66 14.32 -5.32 15.64 -6 17 C-5.34496718 12.94180817 -4.05440879 9.46028718 -2.4375 5.6875 C-1.75494141 4.08455078 -1.75494141 4.08455078 -1.05859375 2.44921875 C-0.53458984 1.23685547 -0.53458984 1.23685547 0 0 Z " fill="#C3F3FD" transform="translate(715,359)"/>
<path d="M0 0 C0.33 0.66 0.66 1.32 1 2 C0.29296875 3.76953125 0.29296875 3.76953125 -0.8125 5.8125 C-2.39794541 8.82429768 -3.80292815 11.8078084 -5 15 C-5.66 14.67 -6.32 14.34 -7 14 C-5.70677932 8.2392897 -3.62011357 4.66804118 0 0 Z " fill="#73BFF6" transform="translate(412,425)"/>
<path d="M0 0 C0.66 0.33 1.32 0.66 2 1 C1.01 4.96 0.02 8.92 -1 13 C-1.33 13 -1.66 13 -2 13 C-2 10.69 -2 8.38 -2 6 C-2.99 6.495 -2.99 6.495 -4 7 C-2.92598892 4.08482708 -2.22189824 2.22189824 0 0 Z " fill="#73BEF3" transform="translate(390,414)"/>
<path d="M0 0 C0.33 0 0.66 0 1 0 C1.125 6.625 1.125 6.625 0 10 C-0.66 10 -1.32 10 -2 10 C-2.66 11.32 -3.32 12.64 -4 14 C-3.36843005 8.94744036 -1.86540627 4.70406799 0 0 Z " fill="#C8F4FB" transform="translate(727,326)"/>
<path d="M0 0 C1 3 1 3 0.109375 5.4453125 C-0.33921875 6.32960938 -0.7878125 7.21390625 -1.25 8.125 C-1.90742187 9.45917969 -1.90742187 9.45917969 -2.578125 10.8203125 C-4 13 -4 13 -7 14 C-6.34 12.02 -5.68 10.04 -5 8 C-4.34 8 -3.68 8 -3 8 C-2.690625 7.05125 -2.38125 6.1025 -2.0625 5.125 C-1 2 -1 2 0 0 Z " fill="#96DAF8" transform="translate(679,450)"/>
<path d="M0 0 C1 2 1 2 0.328125 4.12890625 C-0.02765625 4.93199219 -0.3834375 5.73507812 -0.75 6.5625 C-1.09546875 7.36816406 -1.4409375 8.17382812 -1.796875 9.00390625 C-3 11 -3 11 -6 12 C-4.43358249 7.69235185 -2.31663844 3.93828536 0 0 Z " fill="#94DEFC" transform="translate(656,493)"/>
<path d="M0 0 C0 0.66 0 1.32 0 2 C-3.47325181 3.1577506 -6.36067448 3.06866652 -10 3 C-10 2.34 -10 1.68 -10 1 C-3.71428571 -1.42857143 -3.71428571 -1.42857143 0 0 Z " fill="#66BAFB" transform="translate(429,617)"/>
<path d="M0 0 C-0.99 0.495 -0.99 0.495 -2 1 C-2 1.66 -2 2.32 -2 3 C-9.625 4.25 -9.625 4.25 -13 2 C-4.57142857 -0.28571429 -4.57142857 -0.28571429 0 0 Z " fill="#6EC0F8" transform="translate(496,581)"/>
<path d="M0 0 C0.33 0.66 0.66 1.32 1 2 C0.0625 4.625 0.0625 4.625 -1 7 C-1.99 7 -2.98 7 -4 7 C-6.17032476 8.43990623 -6.17032476 8.43990623 -8 10 C-6.23915938 6.0381086 -3.9706445 1.98532225 0 0 Z " fill="#66B1F2" transform="translate(319,551)"/>
<path d="M0 0 C-2 3 -2 3 -3.9453125 3.51171875 C-4.66460938 3.56972656 -5.38390625 3.62773438 -6.125 3.6875 C-8.043125 3.8421875 -8.043125 3.8421875 -10 4 C-10 3.01 -10 2.02 -10 1 C-6.59437148 0.22157062 -3.49234244 -0.09978121 0 0 Z " fill="#84D3FD" transform="translate(522,531)"/>
<path d="M0 0 C3.96 0 7.92 0 12 0 C5.75 3.125 5.75 3.125 1.375 3.0625 C0.14910156 3.04896484 0.14910156 3.04896484 -1.1015625 3.03515625 C-2.04128906 3.01775391 -2.04128906 3.01775391 -3 3 C-2.01 2.67 -1.02 2.34 0 2 C0 1.34 0 0.68 0 0 Z " fill="#89D9FE" transform="translate(477,514)"/>
<path d="M0 0 C0.33 0 0.66 0 1 0 C1.19294408 4.82360189 0.75747614 8.49646738 -1 13 C-2.53690745 10.58959839 -3.09752136 9.49917715 -2.5390625 6.640625 C-2.23742187 5.85171875 -1.93578125 5.0628125 -1.625 4.25 C-1.32851563 3.45078125 -1.03203125 2.6515625 -0.7265625 1.828125 C-0.48679687 1.22484375 -0.24703125 0.6215625 0 0 Z " fill="#8ED7FA" transform="translate(714,504)"/>
<path d="M0 0 C0.66 0.66 1.32 1.32 2 2 C0.35 5.63 -1.3 9.26 -3 13 C-3.33 13 -3.66 13 -4 13 C-4 11.02 -4 9.04 -4 7 C-3.34 7 -2.68 7 -2 7 C-1.34 4.69 -0.68 2.38 0 0 Z " fill="#9FE6FD" transform="translate(692,473)"/>
<path d="M0 0 C2.31 0.33 4.62 0.66 7 1 C3.5980513 3.09350689 0.94727588 3.17942163 -3 3 C-2.01 2.67 -1.02 2.34 0 2 C0 1.34 0 0.68 0 0 Z M7 0 C8.65 0 10.3 0 12 0 C12 0.33 12 0.66 12 1 C10.35 1 8.7 1 7 1 C7 0.67 7 0.34 7 0 Z " fill="#8FDCFE" transform="translate(503,509)"/>
<path d="M0 0 C1.39195915 4.17587745 -0.17676781 6.13474776 -2 10 C-2.33 10 -2.66 10 -3 10 C-3 7.36 -3 4.72 -3 2 C-2.01 2 -1.02 2 0 2 C0 1.34 0 0.68 0 0 Z " fill="#A2E0F8" transform="translate(692,419)"/>
<path d="M0 0 C3.53586014 3.17320782 5.58578031 5.16743695 6 10 C2.46413986 6.82679218 0.41421969 4.83256305 0 0 Z " fill="#6ABAF5" transform="translate(372,472)"/>
<path d="M0 0 C0.33 0.66 0.66 1.32 1 2 C-1.40983607 6.70491803 -1.40983607 6.70491803 -4 8 C-4 7.34 -4 6.68 -4 6 C-4.99 5.67 -5.98 5.34 -7 5 C-6.21625 4.731875 -5.4325 4.46375 -4.625 4.1875 C-1.71885077 3.15185568 -1.71885077 3.15185568 0 0 Z " fill="#A4E5FC" transform="translate(640,467)"/>
<path d="M0 0 C-3.44450737 2.29633824 -5.93812283 2.54016485 -10 3 C-10 2.34 -10 1.68 -10 1 C-6.78548731 -0.60725635 -3.56387464 -0.05748185 0 0 Z " fill="#B2E9FA" transform="translate(666,355)"/>
<path d="M0 0 C-2.39509338 2.89932357 -4.31245243 3.50168276 -8 4 C-8.33 3.01 -8.66 2.02 -9 1 C-5.8035914 -0.06546953 -3.34252724 -0.07427838 0 0 Z " fill="#65BBFC" transform="translate(406,621)"/>
<path d="M0 0 C4.29 0 8.58 0 13 0 C8.60171741 2.1991413 5.81449408 2.51855059 1 3 C0.67 2.01 0.34 1.02 0 0 Z " fill="#71C8FE" transform="translate(436,591)"/>
<path d="M0 0 C-9.41002278 2.29612756 -9.41002278 2.29612756 -14 2 C-4.96256684 -2.86631016 -4.96256684 -2.86631016 0 0 Z " fill="#89DCFF" transform="translate(511,534)"/>
<path d="M0 0 C-2.76223278 2.76223278 -5.20706617 2.57856291 -9 3 C-9 2.01 -9 1.02 -9 0 C-5.62182575 -0.84454356 -3.32534757 -1.10844919 0 0 Z " fill="#8BD8FC" transform="translate(557,525)"/>
<path d="M0 0 C0.33 0 0.66 0 1 0 C1 3.96 1 7.92 1 12 C0.01 12.33 -0.98 12.66 -2 13 C-1.34 8.71 -0.68 4.42 0 0 Z " fill="#AEEDFE" transform="translate(610,436)"/>
<path d="M0 0 C-2.64738916 1.4606285 -3.89448334 2 -7 2 C-7 2.66 -7 3.32 -7 4 C-9.97 3.505 -9.97 3.505 -13 3 C-8.55314722 0.61775744 -5.04771183 -0.14021422 0 0 Z " fill="#8DDEFE" transform="translate(474,397)"/>
<path d="M0 0 C0.66 0.33 1.32 0.66 2 1 C0.68 1.33 -0.64 1.66 -2 2 C-1.34 1.34 -0.68 0.68 0 0 Z " fill="#AEE4F8" transform="translate(578,345)"/>
<path d="M0 0 C0.33 0.66 0.66 1.32 1 2 C0.01 1.67 -0.98 1.34 -2 1 C-1.34 0.67 -0.68 0.34 0 0 Z " fill="#C1E4EA" transform="translate(722,305)"/>
<path d="M0 0 C3 1 3 1 3 1 Z " fill="#66B5F7" transform="translate(324,648)"/>
<path d="M0 0 C3 1 3 1 3 1 Z " fill="#7BCAFC" transform="translate(465,584)"/>
<path d="M0 0 C3 1 3 1 3 1 Z " fill="#7ECCFC" transform="translate(392,528)"/>
<path d="M0 0 C3 1 3 1 3 1 Z " fill="#A3E3FF" transform="translate(544,499)"/>
<path d="M0 0 C3 1 3 1 3 1 Z " fill="#9ADFFD" transform="translate(532,471)"/>
<path d="M0 0 C3 1 3 1 3 1 Z " fill="#ADE6FD" transform="translate(574,379)"/>
<path d="M0 0 C3 1 3 1 3 1 Z " fill="#B8ECFC" transform="translate(628,367)"/>
<path d="M0 0 C0.33 0.66 0.66 1.32 1 2 C0.34 1.67 -0.32 1.34 -1 1 C-0.67 0.67 -0.34 0.34 0 0 Z " fill="#9BDBF5" transform="translate(508,360)"/>
<path d="M0 0 C3 1 3 1 3 1 Z " fill="#C4EDF7" transform="translate(677,321)"/>
<path d="M0 0 C2 1 2 1 2 1 Z " fill="#6AB7F1" transform="translate(629,679)"/>
<path d="M0 0 C2 1 2 1 2 1 Z " fill="#65B4FA" transform="translate(329,648)"/>
<path d="M0 0 C2 1 2 1 2 1 Z " fill="#6DBCF9" transform="translate(412,623)"/>
<path d="M0 0 C2 1 2 1 2 1 Z " fill="#7FCEFC" transform="translate(505,576)"/>
<path d="" fill="#8ED3F7" transform="translate(0,0)"/>
<path d="M0 0 C2 1 2 1 2 1 Z " fill="#8AD5FC" transform="translate(517,535)"/>
<path d="M0 0 C2 1 2 1 2 1 Z " fill="#91D8FD" transform="translate(532,532)"/>
<path d="M0 0 C2 1 2 1 2 1 Z " fill="#7BC7F8" transform="translate(374,531)"/>
<path d="M0 0 C2 1 2 1 2 1 Z " fill="#94DBFD" transform="translate(557,527)"/>
<path d="M0 0 C2 1 2 1 2 1 Z " fill="#96DDFD" transform="translate(559,526)"/>
<path d="M0 0 C2 1 2 1 2 1 Z " fill="#98DEFD" transform="translate(597,520)"/>
<path d="M0 0 C2 1 2 1 2 1 Z " fill="#85D2FB" transform="translate(437,520)"/>
<path d="M0 0 C2 1 2 1 2 1 Z " fill="#8DD8FB" transform="translate(476,512)"/>
<path d="M0 0 C2 1 2 1 2 1 Z " fill="#A3E5FD" transform="translate(555,497)"/>
<path d="M0 0 C2 1 2 1 2 1 Z " fill="#87D1FD" transform="translate(430,491)"/>
<path d="" fill="#A0DEFB" transform="translate(0,0)"/>
<path d="M0 0 C2 1 2 1 2 1 Z " fill="#98DDFB" transform="translate(510,475)"/>
<path d="M0 0 C2 1 2 1 2 1 Z " fill="#9BE1FC" transform="translate(535,470)"/>
<path d="M0 0 C2 1 2 1 2 1 Z " fill="#A1E2FD" transform="translate(548,468)"/>
<path d="M0 0 C2 1 2 1 2 1 Z " fill="#A6E4FC" transform="translate(572,463)"/>
<path d="M0 0 C2 1 2 1 2 1 Z " fill="#97DDFC" transform="translate(492,448)"/>
<path d="M0 0 C2 1 2 1 2 1 Z " fill="#A3E3FC" transform="translate(533,440)"/>
<path d="M0 0 C2 1 2 1 2 1 Z " fill="#93DBFB" transform="translate(477,399)"/>
<path d="M0 0 C2 1 2 1 2 1 Z " fill="#9BDFFC" transform="translate(517,391)"/>
<path d="M0 0 C2 1 2 1 2 1 Z " fill="#9EDFFC" transform="translate(528,389)"/>
<path d="M0 0 C2 1 2 1 2 1 Z " fill="#A6E4FC" transform="translate(556,383)"/>
<path d="M0 0 C2 1 2 1 2 1 Z " fill="#8CD2F8" transform="translate(441,376)"/>
<path d="M0 0 C2 1 2 1 2 1 Z " fill="#B0E8FD" transform="translate(598,374)"/>
<path d="M0 0 C2 1 2 1 2 1 Z " fill="#B1EAFC" transform="translate(601,373)"/>
<path d="" fill="#C4F0FC" transform="translate(0,0)"/>
<path d="M0 0 C2 1 2 1 2 1 Z " fill="#C3EEF7" transform="translate(681,320)"/>
<path d="M0 0 C2 1 2 1 2 1 Z " fill="#C7EFF6" transform="translate(697,315)"/>
<path d="M0 0 C2 1 2 1 2 1 Z " fill="#BFE4EA" transform="translate(725,307)"/>
<path d="" fill="#51585B" transform="translate(0,0)"/>
<path d="" fill="#64AEEC" transform="translate(0,0)"/>
<path d="" fill="#69AEEC" transform="translate(0,0)"/>
<path d="" fill="#73C3F8" transform="translate(0,0)"/>
<path d="" fill="#72C3FB" transform="translate(0,0)"/>
<path d="" fill="#72C4F8" transform="translate(0,0)"/>
<path d="" fill="#73C3FA" transform="translate(0,0)"/>
<path d="" fill="#73C3FB" transform="translate(0,0)"/>
<path d="" fill="#72C1F8" transform="translate(0,0)"/>
<path d="" fill="#72C3F7" transform="translate(0,0)"/>
<path d="" fill="#71C1FB" transform="translate(0,0)"/>
<path d="" fill="#71C1FA" transform="translate(0,0)"/>
<path d="" fill="#74C1F8" transform="translate(0,0)"/>
<path d="" fill="#72C2F9" transform="translate(0,0)"/>
<path d="" fill="#66B5FA" transform="translate(0,0)"/>
<path d="" fill="#66B6F9" transform="translate(0,0)"/>
<path d="" fill="#63B3FA" transform="translate(0,0)"/>
<path d="" fill="#65B4F8" transform="translate(0,0)"/>
<path d="" fill="#75C3F7" transform="translate(0,0)"/>
<path d="" fill="#6ABAF9" transform="translate(0,0)"/>
<path d="" fill="#6ABCFD" transform="translate(0,0)"/>
<path d="" fill="#6BB4F1" transform="translate(0,0)"/>
<path d="" fill="#71BFFC" transform="translate(0,0)"/>
<path d="" fill="#73C3FB" transform="translate(0,0)"/>
<path d="" fill="#6FC2F8" transform="translate(0,0)"/>
<path d="" fill="#78C5FD" transform="translate(0,0)"/>
<path d="" fill="#78C3FD" transform="translate(0,0)"/>
<path d="" fill="#78C4FC" transform="translate(0,0)"/>
<path d="" fill="#6EBDF8" transform="translate(0,0)"/>
<path d="" fill="#73C0F9" transform="translate(0,0)"/>
<path d="" fill="#73BFFA" transform="translate(0,0)"/>
<path d="" fill="#7FC9FC" transform="translate(0,0)"/>
<path d="" fill="#73B8F2" transform="translate(0,0)"/>
<path d="" fill="#77C4F9" transform="translate(0,0)"/>
<path d="" fill="#75C4FA" transform="translate(0,0)"/>
<path d="" fill="#80CDFD" transform="translate(0,0)"/>
<path d="" fill="#7DCCFA" transform="translate(0,0)"/>
<path d="" fill="#7DCBFB" transform="translate(0,0)"/>
<path d="" fill="#81CBFB" transform="translate(0,0)"/>
<path d="" fill="#81CEFD" transform="translate(0,0)"/>
<path d="" fill="#83D2FC" transform="translate(0,0)"/>
<path d="" fill="#7DCAF9" transform="translate(0,0)"/>
<path d="" fill="#80CDFC" transform="translate(0,0)"/>
<path d="" fill="#85D3FF" transform="translate(0,0)"/>
<path d="" fill="#75BCF3" transform="translate(0,0)"/>
<path d="" fill="#77C3FA" transform="translate(0,0)"/>
<path d="" fill="#74BFF7" transform="translate(0,0)"/>
<path d="" fill="#76C3F8" transform="translate(0,0)"/>
<path d="" fill="#79C5FB" transform="translate(0,0)"/>
<path d="" fill="#78C3F7" transform="translate(0,0)"/>
<path d="" fill="#88D2FF" transform="translate(0,0)"/>
<path d="" fill="#75BEF1" transform="translate(0,0)"/>
<path d="" fill="#87D3FB" transform="translate(0,0)"/>
<path d="" fill="#8BD5FE" transform="translate(0,0)"/>
<path d="" fill="#8AD4FB" transform="translate(0,0)"/>
<path d="" fill="#83CCFA" transform="translate(0,0)"/>
<path d="" fill="#8ED6FB" transform="translate(0,0)"/>
<path d="" fill="#82CFFD" transform="translate(0,0)"/>
<path d="" fill="#8FD8FC" transform="translate(0,0)"/>
<path d="" fill="#86D2FD" transform="translate(0,0)"/>
<path d="" fill="#82D3FB" transform="translate(0,0)"/>
<path d="" fill="#89D2FC" transform="translate(0,0)"/>
<path d="" fill="#92DAFF" transform="translate(0,0)"/>
<path d="" fill="#8BD4FD" transform="translate(0,0)"/>
<path d="" fill="#8ED8FE" transform="translate(0,0)"/>
<path d="" fill="#8CD8FE" transform="translate(0,0)"/>
<path d="" fill="#98DFFF" transform="translate(0,0)"/>
<path d="" fill="#94DAFD" transform="translate(0,0)"/>
<path d="" fill="#7BC8FB" transform="translate(0,0)"/>
<path d="" fill="#7AC7FA" transform="translate(0,0)"/>
<path d="" fill="#7CCBF9" transform="translate(0,0)"/>
<path d="" fill="#8ED3F7" transform="translate(0,0)"/>
<path d="" fill="#8ED4F8" transform="translate(0,0)"/>
<path d="" fill="#85D1FB" transform="translate(0,0)"/>
<path d="" fill="#85D0FB" transform="translate(0,0)"/>
<path d="" fill="#85D2FC" transform="translate(0,0)"/>
<path d="" fill="#85D2FE" transform="translate(0,0)"/>
<path d="" fill="#9CE1FE" transform="translate(0,0)"/>
<path d="" fill="#8ED7FD" transform="translate(0,0)"/>
<path d="" fill="#9EE1FD" transform="translate(0,0)"/>
<path d="" fill="#9EE3FF" transform="translate(0,0)"/>
<path d="" fill="#8FD7FA" transform="translate(0,0)"/>
<path d="" fill="#7EC3F3" transform="translate(0,0)"/>
<path d="" fill="#97DDFD" transform="translate(0,0)"/>
<path d="" fill="#98DEFD" transform="translate(0,0)"/>
<path d="" fill="#98DBFA" transform="translate(0,0)"/>
<path d="" fill="#97E0FD" transform="translate(0,0)"/>
<path d="" fill="#7CC4F7" transform="translate(0,0)"/>
<path d="" fill="#9ADEFC" transform="translate(0,0)"/>
<path d="" fill="#9ADBF9" transform="translate(0,0)"/>
<path d="" fill="#97DDFC" transform="translate(0,0)"/>
<path d="" fill="#97D9F9" transform="translate(0,0)"/>
<path d="" fill="#A6E7FC" transform="translate(0,0)"/>
<path d="" fill="#9EE1FF" transform="translate(0,0)"/>
<path d="" fill="#81CDF9" transform="translate(0,0)"/>
<path d="" fill="#80CEF8" transform="translate(0,0)"/>
<path d="" fill="#81CDFA" transform="translate(0,0)"/>
<path d="" fill="#7FCEF9" transform="translate(0,0)"/>
<path d="" fill="#80CDFB" transform="translate(0,0)"/>
<path d="" fill="#7FCDFD" transform="translate(0,0)"/>
<path d="" fill="#83CFFC" transform="translate(0,0)"/>
<path d="" fill="#85CEFB" transform="translate(0,0)"/>
<path d="" fill="#7ECAFB" transform="translate(0,0)"/>
<path d="" fill="#8AD1FC" transform="translate(0,0)"/>
<path d="" fill="#A8E6FC" transform="translate(0,0)"/>
<path d="" fill="#88D3FB" transform="translate(0,0)"/>
<path d="" fill="#7ECAFB" transform="translate(0,0)"/>
<path d="" fill="#A2E3FC" transform="translate(0,0)"/>
<path d="" fill="#90D6FC" transform="translate(0,0)"/>
<path d="" fill="#7EC6F2" transform="translate(0,0)"/>
<path d="" fill="#81C5F6" transform="translate(0,0)"/>
<path d="" fill="#83C9F3" transform="translate(0,0)"/>
<path d="" fill="#82C5F4" transform="translate(0,0)"/>
<path d="" fill="#A1E1FA" transform="translate(0,0)"/>
<path d="" fill="#A3E3FF" transform="translate(0,0)"/>
<path d="" fill="#90D9FC" transform="translate(0,0)"/>
<path d="" fill="#93DAFC" transform="translate(0,0)"/>
<path d="" fill="#8ED8F9" transform="translate(0,0)"/>
<path d="" fill="#A0DFF9" transform="translate(0,0)"/>
<path d="" fill="#90DBFB" transform="translate(0,0)"/>
<path d="" fill="#A8E4FF" transform="translate(0,0)"/>
<path d="" fill="#ABE5FB" transform="translate(0,0)"/>
<path d="" fill="#A5E5FD" transform="translate(0,0)"/>
<path d="" fill="#99DDFB" transform="translate(0,0)"/>
<path d="" fill="#9CE1FE" transform="translate(0,0)"/>
<path d="" fill="#9FE2FD" transform="translate(0,0)"/>
<path d="" fill="#ABE5FA" transform="translate(0,0)"/>
<path d="" fill="#87CFF9" transform="translate(0,0)"/>
<path d="" fill="#8ED7FB" transform="translate(0,0)"/>
<path d="" fill="#A9E4F8" transform="translate(0,0)"/>
<path d="" fill="#ABE7FD" transform="translate(0,0)"/>
<path d="" fill="#ACE7FD" transform="translate(0,0)"/>
<path d="" fill="#AAE3F9" transform="translate(0,0)"/>
<path d="" fill="#93DBFA" transform="translate(0,0)"/>
<path d="" fill="#99DDFB" transform="translate(0,0)"/>
<path d="" fill="#7FCCF8" transform="translate(0,0)"/>
<path d="" fill="#AEE8FC" transform="translate(0,0)"/>
<path d="" fill="#ADEAFE" transform="translate(0,0)"/>
<path d="" fill="#A1E2FD" transform="translate(0,0)"/>
<path d="" fill="#AFE9FD" transform="translate(0,0)"/>
<path d="" fill="#AFE6FA" transform="translate(0,0)"/>
<path d="" fill="#AEE9FE" transform="translate(0,0)"/>
<path d="" fill="#AEE9FE" transform="translate(0,0)"/>
<path d="" fill="#AEE9FB" transform="translate(0,0)"/>
<path d="" fill="#B3EDFE" transform="translate(0,0)"/>
<path d="" fill="#B3ECFD" transform="translate(0,0)"/>
<path d="" fill="#B6ECFA" transform="translate(0,0)"/>
<path d="" fill="#B4ECFC" transform="translate(0,0)"/>
<path d="" fill="#B8ECFD" transform="translate(0,0)"/>
<path d="" fill="#B6ECFC" transform="translate(0,0)"/>
<path d="" fill="#B2ECFD" transform="translate(0,0)"/>
<path d="" fill="#87D2FC" transform="translate(0,0)"/>
<path d="" fill="#B3ECFA" transform="translate(0,0)"/>
<path d="" fill="#84C9F0" transform="translate(0,0)"/>
<path d="" fill="#BCEDFF" transform="translate(0,0)"/>
<path d="" fill="#BAEDFA" transform="translate(0,0)"/>
<path d="" fill="#B8EDFE" transform="translate(0,0)"/>
<path d="" fill="#8CD4FB" transform="translate(0,0)"/>
<path d="" fill="#B3E7F7" transform="translate(0,0)"/>
<path d="" fill="#91D8FB" transform="translate(0,0)"/>
<path d="" fill="#90D7FB" transform="translate(0,0)"/>
<path d="" fill="#BDEFFD" transform="translate(0,0)"/>
<path d="" fill="#B9EBFB" transform="translate(0,0)"/>
<path d="" fill="#85CCF5" transform="translate(0,0)"/>
<path d="" fill="#83CBF5" transform="translate(0,0)"/>
<path d="" fill="#B7E9FA" transform="translate(0,0)"/>
<path d="" fill="#94DBFC" transform="translate(0,0)"/>
<path d="" fill="#94DAFC" transform="translate(0,0)"/>
<path d="" fill="#9CDDFD" transform="translate(0,0)"/>
<path d="" fill="#B9EDFC" transform="translate(0,0)"/>
<path d="" fill="#85CCF1" transform="translate(0,0)"/>
<path d="" fill="#9EE0FC" transform="translate(0,0)"/>
<path d="" fill="#BDE7F3" transform="translate(0,0)"/>
<path d="" fill="#BEEBF7" transform="translate(0,0)"/>
<path d="" fill="#A2E1FD" transform="translate(0,0)"/>
<path d="" fill="#A2E1FA" transform="translate(0,0)"/>
<path d="" fill="#89CEF1" transform="translate(0,0)"/>
<path d="" fill="#BEEFFE" transform="translate(0,0)"/>
<path d="" fill="#BEF0FC" transform="translate(0,0)"/>
<path d="" fill="#BCEEFC" transform="translate(0,0)"/>
<path d="" fill="#ACE7FB" transform="translate(0,0)"/>
<path d="" fill="#8ED1F5" transform="translate(0,0)"/>
<path d="" fill="#B4E9FC" transform="translate(0,0)"/>
<path d="" fill="#B3EBFC" transform="translate(0,0)"/>
<path d="" fill="#C4F1FE" transform="translate(0,0)"/>
<path d="" fill="#B5EBFB" transform="translate(0,0)"/>
<path d="" fill="#B6ECFC" transform="translate(0,0)"/>
<path d="" fill="#93D5F6" transform="translate(0,0)"/>
<path d="" fill="#91D3F5" transform="translate(0,0)"/>
<path d="" fill="#94D3F4" transform="translate(0,0)"/>
<path d="" fill="#C1F1FD" transform="translate(0,0)"/>
<path d="" fill="#B9EEFD" transform="translate(0,0)"/>
<path d="" fill="#BAEDFE" transform="translate(0,0)"/>
<path d="" fill="#96D7F6" transform="translate(0,0)"/>
<path d="" fill="#BDEDFD" transform="translate(0,0)"/>
<path d="" fill="#BBECFD" transform="translate(0,0)"/>
<path d="" fill="#BDEEFB" transform="translate(0,0)"/>
<path d="" fill="#C5F2FB" transform="translate(0,0)"/>
<path d="" fill="#BEEEFC" transform="translate(0,0)"/>
<path d="" fill="#BCEEFB" transform="translate(0,0)"/>
<path d="" fill="#C4F0FC" transform="translate(0,0)"/>
<path d="" fill="#BFEEFC" transform="translate(0,0)"/>
<path d="" fill="#C0EEFC" transform="translate(0,0)"/>
<path d="" fill="#A4E0F7" transform="translate(0,0)"/>
<path d="" fill="#A4E1F9" transform="translate(0,0)"/>
<path d="" fill="#A5DFF7" transform="translate(0,0)"/>
<path d="" fill="#B1E5F7" transform="translate(0,0)"/>
<path d="" fill="#B0E5F7" transform="translate(0,0)"/>
<path d="" fill="#B6E9F8" transform="translate(0,0)"/>
<path d="" fill="#BBEBF7" transform="translate(0,0)"/>
<path d="" fill="#B8E8F7" transform="translate(0,0)"/>
<path d="" fill="#B6E8F7" transform="translate(0,0)"/>
<path d="" fill="#B7E9F8" transform="translate(0,0)"/>
<path d="" fill="#B7E7F6" transform="translate(0,0)"/>
<path d="" fill="#C2ECF8" transform="translate(0,0)"/>
<path d="" fill="#C2EEF6" transform="translate(0,0)"/>
<path d="" fill="#BFEAF8" transform="translate(0,0)"/>
<path d="" fill="#BFECF7" transform="translate(0,0)"/>
<path d="" fill="#C5EEF8" transform="translate(0,0)"/>
<path d="" fill="#C3E9F1" transform="translate(0,0)"/>
<path d="" fill="#C7ECF6" transform="translate(0,0)"/>
<path d="" fill="#C5EDF5" transform="translate(0,0)"/>
<path d="" fill="#C1E4EA" transform="translate(0,0)"/>
</svg>
